<svg width="1363" height="373" viewBox="0 0 1363 373" fill="none" xmlns="http://www.w3.org/2000/svg">
<path d="M83.9806 372.028C66.7137 372.028 52.7024 367.035 41.9467 357.048C38.1768 353.278 34.9311 350.727 32.2097 349.394C29.6814 348.177 27.3304 346.623 25.2216 344.772C22.6258 342.316 20.236 339.65 18.0761 336.803C11.9143 328.838 8.83344 320.769 8.83344 312.595C8.8767 307.859 9.85409 303.179 11.7096 298.821C12.8031 296.424 15.1675 293.204 18.8026 289.159C22.4714 285.077 26.3463 281.184 30.4121 277.497C34.5216 273.762 37.8447 271.21 40.3813 269.842C43.4622 268.474 46.0987 267.79 48.2907 267.79C50.348 267.79 51.821 268.304 52.7099 269.333C53.5987 270.362 54.455 270.876 55.2789 270.876C55.5096 270.914 55.7297 271 55.9247 271.129C56.1196 271.258 56.285 271.427 56.4099 271.625C57.1174 272.337 57.5226 273.295 57.5409 274.299C57.4754 275.256 57.1575 276.178 56.6196 276.973C55.3044 278.848 53.8256 280.602 52.2005 282.216C50.389 284.36 48.7082 286.611 47.1673 288.957C45.4545 291.528 44.0489 293.805 42.9504 295.788C41.6538 297.978 40.6467 300.327 39.9544 302.776C39.4724 305.386 39.2665 308.039 39.3402 310.693C39.3441 314.439 39.7229 318.175 40.4712 321.845C41.2252 325.575 42.1165 328.322 43.1451 330.084C44.1738 331.113 47.0849 331.627 51.8785 331.627C59.1637 331.677 66.4221 330.742 73.4572 328.848C95.1782 322.477 111.554 313.674 122.584 302.439C132.571 292.846 137.881 282.331 138.515 270.891L139.032 262.772C133.04 261.231 126.966 260.031 120.839 259.177C105.08 256.78 93.1234 253.886 84.9693 250.496C76.8667 247.143 69.6539 241.953 63.8999 235.336C60.3375 231.272 56.3016 227.648 51.8785 224.543C44.4783 220.024 37.5576 212.179 31.1162 201.009C27.1215 194.708 24.5175 189.09 23.3041 184.157C22.0907 179.223 21.4741 172.482 21.4541 163.934C21.4541 148.584 24.1605 132.963 29.5732 117.069C37.3828 93.3654 48.1559 72.6431 61.8926 54.9018C75.6293 37.1604 91.2334 23.8008 108.705 14.8228C121.308 8.38136 133.542 5.16064 145.406 5.16064C152.327 5.16064 157.79 6.08692 161.794 7.93945C165.799 9.79198 170.647 13.6293 176.34 19.4516C182.232 25.6882 185.932 29.9701 187.44 32.2969C191.14 37.8445 192.99 46.8874 192.99 59.4257C192.982 68.9549 191.897 78.4526 189.754 87.7379C187.597 97.1603 183.982 108.208 178.909 120.881C168.153 147.945 159.727 164.765 153.63 171.341C152.203 172.965 150.62 174.445 148.904 175.76C148.16 176.306 147.258 176.596 146.335 176.584C144.757 176.584 143.626 176.31 142.942 175.76C142.711 175.516 142.536 175.223 142.43 174.903C142.324 174.584 142.289 174.245 142.328 173.91C142.328 172.747 142.123 172.165 141.714 172.165H141.302C140.889 172.123 140.493 171.984 140.144 171.76C139.796 171.536 139.505 171.234 139.294 170.877C138.64 170.023 138.178 169.594 137.909 169.589C137.881 169.585 137.853 169.588 137.827 169.596C137.801 169.605 137.777 169.62 137.757 169.64C137.738 169.659 137.723 169.683 137.714 169.709C137.705 169.735 137.703 169.763 137.706 169.791C137.706 169.926 137.706 169.993 137.602 169.993C137.257 169.993 136.605 169.341 135.647 168.038C134.682 167.161 134.092 165.946 133.999 164.645C133.999 163.207 136.226 158.034 140.68 149.126C154.861 120.165 164.453 95.6374 169.456 75.5442C170.857 68.9081 171.751 62.1752 172.13 55.4036C172.405 51.6386 172.542 48.3505 172.542 45.5393C172.585 42.9951 172.412 40.4519 172.026 37.9369C171.751 35.4702 170.752 34.2368 169.03 34.2368C167.307 34.2368 164.463 35.2804 160.498 37.3676C156.454 39.4599 151.263 43.6742 144.927 50.0108C138.651 56.2783 132.89 63.0412 127.7 70.2338C124.958 74.1385 121.156 79.9958 116.292 87.8053C104.308 107.06 96.1544 121.003 91.8301 129.637C88.7416 136.139 86.0307 142.814 83.711 149.628C80.9696 157.472 78.8799 164.376 77.4418 170.338C76.4132 176.574 75.8989 184.796 75.8989 195.002C75.8989 202.492 76.2409 207.323 76.925 209.495C77.2645 210.328 77.8809 211.019 78.6702 211.45C80.313 212.549 85.2789 214.296 93.5678 216.693C107.954 220.598 118.367 224.023 124.809 226.97C131.118 229.825 136.862 233.793 141.766 238.684C145.379 242.14 149.25 245.315 153.346 248.181C157.303 251.208 160.921 254.654 164.139 258.457C173.526 269.213 178.22 281.1 178.22 294.117C178.22 295.895 177.928 299.715 177.343 305.577C176.759 311.439 173.454 318.754 167.427 327.523C161.19 336.511 152.969 344.665 142.762 351.985C132.786 359.209 121.766 364.869 110.083 368.77C102.748 370.942 94.0472 372.028 83.9806 372.028ZM24.5624 306.566C24.8267 306.248 24.9724 305.848 24.9744 305.435C24.9744 304.541 24.7697 304.094 24.3602 304.094C24.1555 304.094 24.0531 304.404 24.0531 305.023C24.0606 306.049 24.2329 306.566 24.5624 306.566ZM29.2886 301.532C29.5633 301.532 30.1125 300.574 30.9364 298.656C31.3317 298.015 31.6414 297.325 31.8577 296.604C31.7179 296.604 31.3059 297.016 30.6218 297.84C30.2773 298.524 29.9353 299.141 29.5957 299.69C29.3228 300.052 29.1451 300.477 29.0789 300.926C29.0939 301.323 29.1613 301.525 29.3036 301.525L29.2886 301.532ZM48.7102 126.199C49.1197 126.199 50.7974 122.876 53.7435 116.23C57.5085 107.462 63.4006 96.259 71.4199 82.6223C73.9515 78.3729 75.2198 76.1808 75.2248 76.046C74.7255 76.046 72.6707 78.6151 69.0605 83.7532C62.1061 94.206 56.2836 105.369 51.6912 117.054C49.7139 122.531 48.7252 125.58 48.7252 126.199H48.7102ZM52.3054 138.632C52.6499 138.632 53.9857 135.789 56.3125 130.101C64.1371 108.455 75.824 86.9415 91.3732 65.56C94.524 60.9012 96.0994 58.3671 96.0994 57.9577C95.7549 57.9577 92.8088 61.4181 87.2612 68.3388C73.0802 87.1138 62.7689 105.886 56.3275 124.656C53.6561 132.945 52.3204 137.536 52.3204 138.43L52.3054 138.632ZM68.1318 119.623C68.5412 119.623 70.5635 116.265 74.1987 109.549C75.9813 106.328 78.3781 102.251 81.3891 97.3176C89.1986 84.6445 96.4964 73.6592 103.282 64.3616C107.277 59.0188 113.032 51.9282 120.547 43.09L114.69 48.6401C107.15 55.5609 98.6186 66.3165 89.0963 80.907C86.3549 84.9017 83.3739 89.7328 80.1532 95.4002C76.9325 101.068 74.1063 106.311 71.6745 111.129C69.2528 115.898 68.0768 118.729 68.1467 119.623H68.1318ZM77.4868 140.595C77.689 140.595 77.9661 140.355 78.3107 139.846C78.7832 139.048 79.1294 138.181 79.3368 137.277C79.3368 136.932 79.3368 136.76 79.2319 136.76C78.9548 136.76 78.6477 137.104 78.3107 137.786C77.6868 138.46 77.3231 139.333 77.2845 140.25C77.2995 140.482 77.3669 140.587 77.5017 140.587L77.4868 140.595ZM79.2319 135.659C79.5066 135.659 81.5963 131.914 85.5011 124.424C88.0327 119.146 89.301 116.165 89.306 115.481C89.1013 115.481 88.2799 116.749 86.8418 119.286C85.0592 122.506 83.1417 126.274 81.0895 130.588C79.8561 133.35 79.2394 135.037 79.2394 135.651L79.2319 135.659ZM147.061 299.585C147.129 299.585 147.331 299.345 147.676 298.836C148.499 298.017 149.184 296.459 149.728 294.162C150.115 292.763 150.39 291.336 150.552 289.893C150.552 289.758 150.552 289.691 150.447 289.691C150.242 289.691 149.59 291.129 148.492 294.005C148.455 294.046 148.426 294.095 148.408 294.148C148.39 294.201 148.383 294.256 148.387 294.312C147.428 297.188 146.949 298.901 146.949 299.45L147.061 299.585ZM148.395 307.397C149.014 307.397 150.487 305.4 152.814 301.405C154.871 296.267 155.9 292.704 155.9 290.717C155.9 290.515 155.9 290.41 155.795 290.41C155.59 290.41 154.888 291.935 153.69 294.986C152.492 298.037 151.276 300.828 150.042 303.36L149.526 304.693C148.966 305.47 148.548 306.34 148.29 307.262C148.288 307.278 148.291 307.294 148.298 307.308C148.304 307.323 148.314 307.335 148.327 307.344C148.34 307.353 148.355 307.359 148.371 307.36C148.387 307.362 148.403 307.359 148.417 307.352L148.395 307.397ZM150.245 316.026C150.447 316.026 150.896 315.681 151.578 314.999C153.331 313.257 154.843 311.287 156.072 309.142C157.375 307.36 158.027 305.862 158.027 304.648C158.027 304.304 157.959 304.131 157.825 304.131C157.205 304.131 155.63 306.154 153.098 310.198C151.041 313.419 150.012 315.304 150.012 315.853C150.012 315.884 150.02 315.913 150.034 315.94C150.048 315.967 150.069 315.989 150.095 316.006C150.12 316.022 150.149 316.032 150.179 316.034C150.209 316.036 150.24 316.031 150.267 316.018L150.245 316.026Z" fill="white"/>
<path d="M257.539 144.287C256.485 146.325 254.625 147.763 251.959 148.602C244.973 150.285 237.688 150.285 230.702 148.602C229.516 148.293 228.407 147.741 227.447 146.98C226.486 146.219 225.694 145.266 225.122 144.183C224.189 142.439 223.549 140.554 223.227 138.602C222.806 133.771 222.806 128.911 223.227 124.079C223.524 122.203 224.129 120.388 225.017 118.709C226.98 114.924 232.452 113.029 241.435 113.024C250.274 113.024 255.606 114.919 257.434 118.709C258.424 120.437 259.102 122.326 259.434 124.289C259.855 129.121 259.855 133.98 259.434 138.812C259.121 140.732 258.48 142.585 257.539 144.287ZM222.913 183.333C222.874 180.907 222.979 178.481 223.227 176.067C223.539 174.128 224.143 172.246 225.017 170.487C226.98 166.842 232.452 165.02 241.435 165.02C248.171 165.02 252.943 166.213 255.749 168.6C258.131 170.567 259.394 173.583 259.539 177.648C259.679 179.051 259.748 181.086 259.748 183.752V257.416C259.788 259.842 259.683 262.268 259.434 264.682C259.102 266.645 258.425 268.534 257.434 270.262C255.611 273.912 250.209 275.734 241.226 275.729C232.387 275.729 226.985 273.834 225.017 270.044C224.155 268.32 223.552 266.477 223.227 264.577C222.974 262.129 222.869 259.667 222.913 257.207V183.333Z" fill="white"/>
<path d="M351.935 166.076C354.508 166.859 356.806 168.355 358.564 170.39C360.322 172.422 361.2 175.685 361.2 180.179C361.2 184.673 359.867 189.584 357.201 194.912C354.534 200.245 350.674 202.912 345.621 202.912C343.102 202.914 340.616 202.338 338.356 201.226C336.039 200.103 332.988 199.541 329.203 199.541C325.3 199.583 321.537 200.999 318.575 203.541C315.274 206.207 313.626 209.435 313.631 213.225V257.416C313.671 259.842 313.566 262.268 313.317 264.682C312.985 266.645 312.308 268.534 311.317 270.262C309.215 273.912 303.742 275.734 294.899 275.729C288.163 275.729 283.322 274.536 280.376 272.149C278.129 270.187 276.866 267.171 276.586 263.101V183.123C276.547 180.7 276.652 178.276 276.9 175.865C277.197 173.989 277.802 172.174 278.691 170.495C280.653 166.71 286.126 164.815 295.109 164.81C303.527 164.81 308.79 166.423 310.898 169.649C312.366 171.669 313.174 174.094 313.212 176.592C314.147 175.331 315.165 174.135 316.26 173.012C317.594 171.608 320.435 169.713 324.784 167.327C329.133 164.94 332.958 163.746 336.259 163.746C339.039 163.713 341.818 163.888 344.573 164.271C347.068 164.688 349.53 165.291 351.935 166.076Z" fill="white"/>
<path d="M438.437 176.599C439.276 168.74 444.819 164.81 455.065 164.81C460.558 164.81 464.627 165.232 467.274 166.076C468.459 166.385 469.568 166.938 470.528 167.699C471.489 168.46 472.281 169.412 472.854 170.495C473.786 172.239 474.426 174.124 474.749 176.075C474.997 178.488 475.102 180.914 475.063 183.34V257.004C475.102 259.428 474.997 261.851 474.749 264.262C474.435 266.201 473.831 268.082 472.959 269.842C470.991 273.492 466.185 275.317 458.54 275.317C450.896 275.317 445.775 274.369 443.179 272.471C440.582 270.579 439.084 267.807 438.685 264.157C433.491 271.597 424.826 275.317 412.687 275.317C400.548 275.317 389.265 269.767 378.839 258.667C368.453 247.582 363.263 234.707 363.268 220.041C363.273 205.376 368.511 192.535 378.982 181.52C389.433 170.535 400.902 165.042 413.391 165.042C417.867 164.985 422.307 165.844 426.438 167.566C430.368 169.249 433.114 170.827 434.677 172.3C436.067 173.608 437.327 175.047 438.437 176.599ZM400.126 220.378C400.126 225.007 401.951 229.182 405.601 232.902C407.304 234.699 409.362 236.123 411.644 237.084C413.926 238.044 416.383 238.52 418.858 238.482C421.299 238.535 423.722 238.055 425.958 237.074C428.193 236.094 430.188 234.636 431.801 232.804C435.237 229.014 436.957 224.84 436.962 220.281C436.967 215.722 435.316 211.478 432.011 207.548C428.71 203.618 424.291 201.653 418.754 201.653C413.216 201.653 408.722 203.618 405.272 207.548C401.846 211.473 400.133 215.749 400.133 220.378H400.126Z" fill="white"/>
<path d="M553.356 165.229C567.388 165.229 579.07 170.562 588.402 181.228C597.735 191.894 602.401 204.944 602.401 220.378V257.424C602.44 259.85 602.335 262.276 602.086 264.689C601.754 266.652 601.077 268.541 600.087 270.269C598.259 273.919 592.856 275.742 583.878 275.737C575.32 275.737 569.987 273.914 567.88 270.269C566.874 268.511 566.196 266.585 565.88 264.584C565.63 262.066 565.525 259.535 565.565 257.004V220.169C565.565 214.416 563.952 209.922 560.727 206.687C557.501 203.451 553.396 201.838 548.413 201.848C543.64 201.771 538.989 203.36 535.261 206.342C531.471 209.338 529.296 212.741 528.737 216.551V257.386C528.776 259.812 528.671 262.238 528.422 264.652C528.089 266.615 527.412 268.504 526.422 270.232C524.595 273.882 519.192 275.704 510.214 275.699C501.376 275.699 495.973 273.804 494.006 270.015C493.143 268.29 492.539 266.448 492.216 264.547C491.961 262.099 491.856 259.637 491.901 257.177V131.337C491.861 128.914 491.966 126.49 492.216 124.079C492.511 122.203 493.116 120.388 494.006 118.709C495.973 114.924 501.446 113.029 510.424 113.024C519.262 113.024 524.595 114.919 526.422 118.709C527.411 120.437 528.088 122.326 528.422 124.289C528.67 126.7 528.775 129.124 528.737 131.547V178.06C535.752 169.511 543.959 165.234 553.356 165.229Z" fill="white"/>
<path d="M786.355 152.601C790.07 160.347 791.942 168.848 791.823 177.438C791.948 185.99 790.076 194.454 786.355 202.155C782.705 209.52 778.004 215.377 772.252 219.727C760.602 228.715 748.536 233.209 736.053 233.209H709.74V256.997C709.78 259.42 709.675 261.844 709.426 264.255C709.094 266.218 708.417 268.108 707.426 269.835C705.458 273.625 699.986 275.52 691.008 275.52C681.186 275.52 675.443 272.923 673.781 267.73C672.937 265.343 672.515 261.696 672.515 256.787V139.943C672.475 137.52 672.58 135.096 672.829 132.685C673.16 130.721 673.837 128.832 674.829 127.105C676.792 123.315 682.264 121.42 691.247 121.42H736.292C748.636 121.42 760.632 125.914 772.282 134.902C778.014 139.267 782.705 145.166 786.355 152.601ZM748.681 191.332C752.75 188.246 754.785 183.615 754.785 177.438C754.785 171.261 752.75 166.595 748.681 163.439C744.611 160.284 740.402 158.706 736.053 158.706H709.74V195.961H736.262C740.472 195.961 744.611 194.415 748.681 191.325V191.332Z" fill="white"/>
<path d="M906.135 206.986C906.135 215.615 903.996 221.999 899.717 226.138C895.437 230.278 890.694 232.347 885.486 232.347H835.602C835.602 236.277 837.917 239.575 842.545 242.242C846.739 244.785 851.535 246.166 856.439 246.241C864.578 246.241 870.962 245.4 875.591 243.717L877.906 242.871C881.271 241.328 884.077 240.556 886.324 240.556C890.818 240.556 894.678 243.715 897.904 250.031C899.727 253.816 900.638 257.042 900.638 259.708C900.638 272.192 885.693 278.433 855.803 278.433C845.417 278.433 836.179 276.643 828.09 273.063C820.001 269.483 813.721 264.739 809.252 258.832C800.414 247.467 795.995 234.769 795.995 220.738C795.995 203.056 801.712 188.918 813.147 178.322C824.582 167.726 838.86 162.428 855.982 162.428C875.486 162.428 889.8 169.304 898.923 183.056C903.654 190.137 906.165 198.469 906.135 206.986ZM861.72 213.195C867.053 213.195 869.719 210.948 869.719 206.454C869.763 204.957 869.452 203.471 868.812 202.117C868.171 200.763 867.219 199.58 866.034 198.665C863.577 196.702 860.082 195.721 855.548 195.721C851.014 195.721 846.49 197.581 841.976 201.301C837.482 205.021 835.235 208.986 835.235 213.195H861.72Z" fill="white"/>
<path d="M955.996 179.543C962.588 169.581 970.514 164.588 979.777 164.563C994.088 164.563 1004.75 170.667 1011.77 182.876C1013.49 180.555 1015.35 178.341 1017.35 176.247C1019.52 173.93 1022.99 171.404 1027.77 168.667C1032.22 166.015 1037.31 164.598 1042.5 164.563C1053.72 164.563 1063.13 168.877 1070.71 177.506C1078.29 186.134 1082.08 200.412 1082.08 220.341V257.177C1082.11 259.6 1082.01 262.024 1081.76 264.434C1081.43 266.398 1080.75 268.287 1079.76 270.015C1077.94 273.804 1072.54 275.699 1063.55 275.699C1054.71 275.699 1049.31 273.735 1047.34 269.805C1046.47 268.046 1045.87 266.164 1045.55 264.225C1045.31 261.814 1045.2 259.39 1045.24 256.967V220.169C1045.24 207.96 1040.89 201.856 1032.19 201.856C1027.28 201.856 1023.95 203.468 1022.19 206.694C1020.44 209.92 1019.56 214.481 1019.56 220.378V257.214C1019.61 259.675 1019.5 262.136 1019.25 264.584C1018.9 266.509 1018.23 268.358 1017.25 270.052C1015.28 273.842 1009.81 275.737 1000.83 275.737C991.988 275.737 986.586 273.772 984.623 269.842C983.748 268.083 983.144 266.202 982.833 264.262C982.584 261.851 982.479 259.428 982.518 257.004V220.169C982.518 207.96 978.169 201.856 969.471 201.856C961.052 201.856 956.843 207.96 956.843 220.169V257.424C956.882 259.85 956.777 262.276 956.528 264.689C956.196 266.653 955.519 268.542 954.528 270.269C952.421 273.919 946.948 275.742 938.11 275.737C929.272 275.732 923.869 273.837 921.902 270.052C921.039 268.328 920.436 266.485 920.112 264.584C919.857 262.136 919.752 259.675 919.797 257.214V183.123C919.757 180.7 919.863 178.276 920.112 175.865C920.425 173.963 921.104 172.139 922.112 170.495C924.214 166.71 929.207 164.815 937.092 164.81C944.976 164.805 950.097 166.068 952.454 168.6C954.815 171.122 955.996 174.769 955.996 179.543Z" fill="white"/>
<path d="M1170.9 176.599C1171.74 168.74 1177.28 164.81 1187.53 164.81C1193.02 164.81 1197.09 165.232 1199.74 166.076C1200.92 166.385 1202.03 166.938 1202.99 167.699C1203.95 168.46 1204.74 169.412 1205.32 170.495C1206.25 172.239 1206.89 174.124 1207.21 176.075C1207.46 178.488 1207.56 180.914 1207.53 183.34V257.004C1207.56 259.428 1207.46 261.851 1207.21 264.262C1206.9 266.201 1206.29 268.082 1205.42 269.842C1203.45 273.492 1198.65 275.317 1191 275.317C1183.36 275.317 1178.24 274.369 1175.64 272.471C1173.04 270.579 1171.55 267.807 1171.15 264.157C1165.95 271.597 1157.29 275.317 1145.16 275.317C1133.02 275.317 1121.76 269.767 1111.36 258.667C1100.98 247.582 1095.78 234.707 1095.79 220.041C1095.79 205.376 1101.01 192.535 1111.44 181.52C1121.87 170.535 1133.33 165.042 1145.82 165.042C1150.29 164.985 1154.73 165.844 1158.86 167.566C1162.79 169.249 1165.53 170.827 1167.1 172.3C1168.5 173.606 1169.78 175.046 1170.9 176.599ZM1132.6 220.378C1132.6 225.007 1134.42 229.182 1138.07 232.902C1139.77 234.699 1141.83 236.123 1144.11 237.084C1146.4 238.044 1148.85 238.52 1151.33 238.482C1153.77 238.535 1156.19 238.055 1158.43 237.074C1160.66 236.094 1162.66 234.636 1164.27 232.804C1167.71 229.014 1169.42 224.84 1169.42 220.281C1169.42 215.722 1167.78 211.478 1164.48 207.548C1161.18 203.618 1156.76 201.653 1151.22 201.653C1145.69 201.653 1141.19 203.618 1137.74 207.548C1134.31 211.473 1132.59 215.749 1132.59 220.378H1132.6Z" fill="white"/>
<path d="M1224.36 131.135C1224.32 128.712 1224.42 126.288 1224.67 123.877C1224.98 121.937 1225.59 120.056 1226.46 118.297C1228.43 114.512 1233.9 112.62 1242.88 112.62C1251.44 112.62 1256.77 114.512 1258.88 118.297C1259.88 120.057 1260.56 121.982 1260.88 123.982C1261.11 126.426 1261.21 128.882 1261.16 131.337V228.79C1261.16 233.838 1261.58 237.031 1262.43 238.369C1263.27 239.707 1265.13 240.374 1268.01 240.369C1269.94 240.307 1271.88 240.412 1273.8 240.684C1275.09 241.048 1276.31 241.655 1277.38 242.474C1280.18 244.301 1281.59 249.295 1281.59 257.454C1281.59 266.297 1280.18 271.7 1277.38 273.662C1273.73 276.189 1265.03 276.611 1251.28 274.928C1240.47 273.525 1233.46 269.947 1230.24 264.195C1226.31 257.324 1224.34 246.379 1224.34 231.359L1224.36 131.135Z" fill="white"/>
<path d="M1293.18 183.333C1293.14 180.907 1293.25 178.481 1293.5 176.067C1293.81 174.128 1294.41 172.246 1295.29 170.487C1297.25 166.842 1302.73 165.02 1311.7 165.02C1318.44 165.02 1323.21 166.213 1326.02 168.6C1328.4 170.567 1329.67 173.583 1329.81 177.648C1329.95 179.051 1330.02 181.086 1330.02 183.752V257.416C1330.06 259.842 1329.95 262.268 1329.7 264.682C1329.37 266.645 1328.69 268.534 1327.7 270.262C1325.88 273.912 1320.47 275.734 1311.49 275.729C1302.66 275.729 1297.25 273.834 1295.29 270.044C1294.42 268.32 1293.82 266.478 1293.5 264.577C1293.24 262.129 1293.14 259.667 1293.18 257.207V183.333Z" fill="white"/>
<path d="M75.9588 194.95C75.9588 193.452 75.9588 191.954 75.9962 190.523C75.1948 188.493 74.341 186.643 73.577 185.138C66.9483 172.038 56.4324 161.305 45.9389 151.231C45.5134 150.438 44.8748 149.78 44.0953 149.332C43.3157 148.883 42.4262 148.661 41.5273 148.691C37.3778 148.309 33.4306 152.804 35.1009 156.811C37.8047 171.386 41.0928 186.142 48.493 199.144C52.8671 206.806 62.4993 219.802 73.1126 214.124C74.8844 213.205 76.3497 211.789 77.3295 210.05C77.189 209.868 77.0684 209.672 76.9699 209.465C76.2958 207.258 75.9588 202.42 75.9588 194.95Z" fill="white"/>
<path d="M190.421 71.2823C190.395 73.0126 190.888 74.711 191.837 76.1583C192.331 72.4882 192.683 68.8256 192.855 65.148C191.344 66.8406 190.482 69.014 190.421 71.2823Z" fill="white"/>
<path d="M52.7323 269.355C51.8385 268.327 50.3655 267.812 48.3132 267.812C46.1211 267.812 43.4847 268.497 40.4038 269.865C37.8672 271.238 34.5441 273.79 30.4346 277.52C26.3688 281.207 22.4939 285.099 18.8251 289.181C17.2447 290.942 15.919 292.537 14.8179 293.983C15.4585 294.022 16.1008 293.943 16.7129 293.75C25.229 291.016 34.0223 294.642 42.6658 292.582C43.5993 292.353 44.5154 292.057 45.4071 291.698C45.9688 290.807 46.5381 289.908 47.1897 288.927C48.7307 286.581 50.4115 284.33 52.223 282.186C53.8367 280.581 55.3078 278.84 56.6196 276.98C56.6449 274.852 56.1458 272.751 55.1666 270.861C54.1878 270.701 53.3124 270.16 52.7323 269.355Z" fill="white"/>
<path d="M67.7498 330.182C68.0194 330.182 68.2741 330.279 68.5437 330.287C70.3686 330.337 72.1631 329.813 73.6743 328.789L73.4946 328.841C71.6221 329.38 69.6972 329.822 67.7498 330.182Z" fill="white"/>
<path d="M22.0757 151.62C21.6937 155.74 21.4915 159.859 21.4915 163.919C21.4915 172.487 22.1082 179.228 23.3415 184.142C24.2632 187.649 25.5773 191.041 27.2588 194.253C29.2212 182.404 28.7568 170.158 27.9404 158.226C28.4647 154.728 25.3638 151.882 22.0757 151.62Z" fill="white"/>
<path d="M135.669 168.038C136.628 169.341 137.279 169.993 137.624 169.993C137.691 169.993 137.729 169.926 137.729 169.791C137.725 169.763 137.728 169.735 137.737 169.709C137.746 169.683 137.76 169.659 137.78 169.64C137.799 169.62 137.823 169.605 137.85 169.596C137.876 169.588 137.904 169.585 137.931 169.589C138.206 169.589 138.668 170.018 139.317 170.877C139.527 171.234 139.818 171.536 140.167 171.76C140.516 171.984 140.912 172.123 141.324 172.165H141.736C142.145 172.165 142.35 172.747 142.35 173.91C142.311 174.245 142.346 174.584 142.452 174.903C142.558 175.223 142.733 175.515 142.964 175.76C143.648 176.31 144.779 176.584 146.357 176.584C147.28 176.596 148.182 176.306 148.926 175.76L148.994 175.708C145.299 167.695 142.233 159.406 139.826 150.916C135.976 158.713 134.021 163.327 134.021 164.66C134.118 165.955 134.708 167.164 135.669 168.038Z" fill="white"/>
<path d="M75.442 90.262C75.9668 89.9941 76.4408 89.6367 76.8426 89.2059C77.2465 88.8257 77.5833 88.38 77.8388 87.8876C78.7491 86.4956 79.3022 84.9006 79.4492 83.2438C77.9512 85.6481 76.4532 88.0599 75.0675 90.4717C75.1873 90.3968 75.3222 90.3444 75.442 90.262Z" fill="white"/>
<path d="M160.978 295.436C158.914 295.461 156.941 296.292 155.482 297.752C154.022 299.211 153.191 301.184 153.166 303.248C153.17 304.881 153.695 306.471 154.664 307.787C156.304 305.337 157.375 304.094 157.854 304.094C157.989 304.094 158.057 304.266 158.057 304.611C158.057 305.844 157.405 307.342 156.102 309.105L156.042 309.21C157.416 310.375 159.154 311.022 160.955 311.037C162.971 311.025 164.905 310.242 166.363 308.85C167.234 308.005 167.878 306.954 168.236 305.794C168.572 304.998 168.746 304.142 168.746 303.278C168.746 302.413 168.572 301.557 168.236 300.761C167.882 299.56 167.224 298.472 166.326 297.6C164.876 296.237 162.968 295.465 160.978 295.436Z" fill="white"/>
<path d="M112.832 233.471C113.357 233.203 113.831 232.846 114.233 232.415C114.636 232.034 114.973 231.589 115.229 231.096C115.948 230.012 116.443 228.795 116.688 227.517C116.932 226.239 116.92 224.925 116.652 223.651C112.448 222.153 107.412 220.556 101.545 218.858C101.387 218.993 101.208 219.097 101.058 219.24C97.4102 222.738 97.545 228.894 101.058 232.415C102.597 233.922 104.611 234.85 106.757 235.043C108.902 235.235 111.049 234.68 112.832 233.471Z" fill="white"/>
<path d="M35.0859 126.094C34.824 125.635 34.4786 125.228 34.0672 124.896C33.6796 124.538 33.2464 124.234 32.7789 123.989C31.3426 122.999 29.654 122.438 27.9104 122.372C26.1465 128.15 24.7259 134.027 23.6561 139.973C25.5233 140.893 27.6467 141.156 29.6817 140.718C31.7168 140.28 33.5441 139.167 34.8675 137.56C36.1908 135.953 36.9324 133.946 36.972 131.865C37.0117 129.784 36.347 127.75 35.0859 126.094ZM25.8207 133.584C26.0379 133.749 26.2552 133.906 26.4649 134.056C26.2295 133.929 26.0127 133.77 25.8207 133.584Z" fill="white"/>
<path d="M90.8714 346.854C111.507 342.914 131.447 335.942 150.042 326.167C150.926 325.657 151.664 324.93 152.188 324.055C152.712 323.181 153.003 322.186 153.036 321.167C153.068 320.148 152.839 319.137 152.372 318.231C151.905 317.325 151.214 316.553 150.364 315.988C150.332 315.992 150.299 315.992 150.267 315.988C150.24 315.992 150.212 315.989 150.186 315.98C150.159 315.971 150.135 315.957 150.116 315.937C150.096 315.918 150.082 315.894 150.073 315.867C150.064 315.841 150.061 315.813 150.065 315.786C140.901 310.989 131.407 306.852 121.655 303.405C116.481 308.369 110.692 312.648 104.428 316.138C108.738 317.756 113.052 319.364 117.371 320.962C112.098 322.909 106.83 324.871 101.567 326.849C94.4367 329.538 88.6244 331.71 84.0705 338.009C80.7374 342.683 86.2501 347.731 90.8714 346.854Z" fill="white"/>
<path d="M157.884 165.649C161.145 160.422 164.074 154.996 166.655 149.403C165.442 148.81 164.111 148.5 162.76 148.497C160.301 148.533 157.952 149.527 156.213 151.266C154.473 153.006 153.48 155.355 153.443 157.814C153.439 159.393 153.847 160.946 154.626 162.32C155.404 163.694 156.528 164.841 157.884 165.649Z" fill="white"/>
<path d="M88.3847 137.449C77.4418 134.768 66.0345 134.116 54.7771 133.809C53.3939 137.025 52.575 138.632 52.3204 138.632V138.43C52.6003 136.772 53.0136 135.139 53.5562 133.547C52.8672 133.405 52.1549 133.426 51.4751 133.607C50.7954 133.787 50.1669 134.123 49.6389 134.588C46.2085 136.722 46.1935 142.437 49.594 144.759C49.6689 144.819 49.7213 144.894 49.8037 144.954C59.0838 151.995 68.671 158.855 79.2469 163.761C80.4828 159.425 81.9733 154.728 83.7409 149.575C85.3213 145.141 86.8568 141.127 88.3847 137.449ZM78.3256 139.868C77.9811 140.348 77.7115 140.617 77.5017 140.617C77.292 140.617 77.2995 140.512 77.2995 140.31C77.338 139.393 77.7018 138.519 78.3256 137.846C78.6702 137.164 78.9773 136.82 79.2469 136.82C79.3143 136.82 79.3518 136.992 79.3518 137.337C79.1407 138.228 78.7947 139.082 78.3256 139.868Z" fill="white"/>
<path d="M174.849 314.453C175.745 312.406 176.445 310.28 176.939 308.101C175.84 310.064 175.131 312.221 174.849 314.453Z" fill="white"/>
<path d="M97.8746 360.419C96.7716 359.356 95.3803 358.641 93.874 358.364C92.3677 358.086 90.813 358.258 89.4036 358.857C87.9942 359.457 86.7924 360.458 85.948 361.736C85.1035 363.014 84.6537 364.512 84.6547 366.044C84.6672 367.18 84.9277 368.299 85.418 369.324C85.9084 370.348 86.6167 371.254 87.4934 371.976C91.1226 371.888 94.7449 371.616 98.3464 371.159C98.9778 370.411 99.4562 369.546 99.7545 368.613C100.091 367.817 100.265 366.961 100.265 366.096C100.265 365.232 100.091 364.376 99.7545 363.58C99.4096 362.382 98.7622 361.294 97.8746 360.419Z" fill="white"/>
<path d="M33.6628 350.195C36.6826 352.139 39.4631 354.432 41.9467 357.026C46.6804 361.396 52.1702 364.868 58.1476 367.272C61.4657 361.61 61.7877 355.461 57.1215 348.959C50.8374 340.241 39.887 343.439 33.6628 350.195Z" fill="white"/>
<path d="M163.075 330.571C161.011 330.596 159.039 331.428 157.579 332.887C156.119 334.347 155.288 336.319 155.263 338.383C155.271 339.315 155.451 340.236 155.795 341.102C159.103 337.911 162.174 334.484 164.985 330.848C164.363 330.675 163.721 330.582 163.075 330.571Z" fill="white"/>
<path d="M106.368 248.758C102.751 249.342 101.627 252.72 102.331 255.724C107.791 256.967 113.941 258.128 120.869 259.177C126.996 260.031 133.07 261.231 139.062 262.772L138.545 270.891C138.403 273.254 138.055 275.6 137.504 277.902C145.283 281.389 153.262 284.416 161.397 286.964C162.42 287.234 163.496 287.23 164.517 286.954C165.538 286.678 166.469 286.139 167.216 285.391C167.964 284.643 168.503 283.712 168.779 282.691C169.055 281.67 169.059 280.595 168.79 279.572C165.859 270.215 162.296 261.069 158.124 252.196C156.614 250.76 155.018 249.416 153.345 248.174C149.271 245.285 145.422 242.09 141.833 238.616C138.381 235.179 134.502 232.199 130.291 229.748C130.576 235.051 132.628 239.56 135.07 244.946C137.382 250.049 139.711 255.144 142.058 260.233C136.97 257.891 131.874 255.561 126.771 253.244C119.685 250.069 114.18 247.5 106.368 248.758Z" fill="white"/>
<path d="M227.878 256.016C241.106 255.596 251.704 250.773 259.748 243.178V213.428C253.509 218.671 244.072 221.884 237.645 223.614C232.829 224.896 227.891 225.669 222.913 225.921V255.948C224.545 256.031 226.201 256.068 227.878 256.016Z" fill="white"/>
<path d="M246.012 204.312C246.882 203.467 247.526 202.416 247.884 201.256C248.221 200.46 248.394 199.604 248.394 198.74C248.394 197.875 248.221 197.019 247.884 196.223C247.531 195.022 246.873 193.934 245.974 193.062C244.871 191.996 243.479 191.279 241.971 190.999C240.463 190.719 238.906 190.889 237.494 191.488C236.082 192.087 234.878 193.088 234.031 194.367C233.185 195.646 232.733 197.146 232.733 198.68C232.733 200.213 233.185 201.713 234.031 202.992C234.878 204.271 236.082 205.272 237.494 205.871C238.906 206.47 240.463 206.641 241.971 206.361C243.479 206.081 244.871 205.363 245.974 204.297L246.012 204.312Z" fill="white"/>
<path d="M311.482 172.255C311.699 172.42 311.916 172.577 312.126 172.727C311.891 172.6 311.674 172.441 311.482 172.255Z" fill="white"/>
<path d="M305.198 190.628C304.378 190.852 303.63 191.285 303.026 191.883C302.423 192.482 301.984 193.226 301.752 194.043C293.895 206.716 286.218 220.011 283.155 234.759C281.447 242.998 279.762 258.809 291.004 261.776C301.49 264.539 307.797 251.552 310.254 243.987C311.948 238.646 313.082 233.144 313.639 227.569V213.21C313.637 211.958 313.837 210.714 314.231 209.525C314.118 205.278 313.879 201.039 313.602 196.837C314.253 192.493 309.182 189.085 305.198 190.628Z" fill="white"/>
<path d="M402.942 262.277C406.627 264.644 411.481 264.524 414.776 261.259C416.466 259.511 417.407 257.174 417.398 254.743C417.389 252.313 416.432 249.982 414.73 248.246C413.028 246.511 410.716 245.509 408.286 245.454C405.856 245.398 403.501 246.293 401.721 247.949C398.463 251.027 398.216 255.656 400.223 259.304V259.371C400.306 259.513 400.366 259.663 400.448 259.798C400.716 260.361 401.087 260.869 401.542 261.296C401.948 261.703 402.422 262.035 402.942 262.277Z" fill="white"/>
<path d="M450.788 198.875C447.53 201.953 447.283 206.582 449.29 210.229V210.297C449.373 210.439 449.433 210.589 449.515 210.724C449.783 211.287 450.154 211.795 450.609 212.222C451 212.638 451.462 212.983 451.972 213.24C455.657 215.607 460.51 215.487 463.806 212.222C465.496 210.475 466.436 208.137 466.428 205.706C466.419 203.276 465.462 200.945 463.76 199.209C462.058 197.474 459.746 196.472 457.316 196.417C454.886 196.361 452.53 197.256 450.751 198.912L450.788 198.875Z" fill="white"/>
<path d="M431.809 232.797C430.269 234.517 428.4 235.91 426.311 236.894C426.66 237.228 427.053 237.513 427.479 237.74C431.165 240.107 436.018 239.987 439.314 236.721C441.031 234.956 441.992 232.59 441.992 230.127C441.992 227.663 441.031 225.297 439.314 223.532C438.605 222.843 437.788 222.276 436.894 221.854C436.465 225.966 434.675 229.817 431.809 232.797Z" fill="white"/>
<path d="M472.959 269.835C473.831 268.075 474.435 266.194 474.749 264.255C474.749 264.15 474.749 264.015 474.749 263.91C471.618 260.914 467.798 259.087 463.199 260.165C456.099 261.873 454.159 268.404 454.279 275.145C455.597 275.22 456.99 275.265 458.503 275.265C466.173 275.295 470.991 273.485 472.959 269.835Z" fill="white"/>
<path d="M513.195 275.655C510.472 261.296 510.678 246.535 513.799 232.258C516.92 217.981 522.893 204.481 531.358 192.568C535.852 186.269 525.456 180.262 520.977 186.501C502.709 211.967 495.856 244.174 500.889 274.696C503.939 275.443 507.074 275.791 510.214 275.729C511.255 275.729 512.244 275.699 513.195 275.655Z" fill="white"/>
<path d="M600.087 270.262C600.693 269.131 601.194 267.948 601.585 266.726C596.996 268.963 592.472 271.368 588.013 273.939C587.276 274.367 586.648 274.959 586.178 275.669C593.802 275.37 598.424 273.58 600.087 270.262Z" fill="white"/>
<path d="M526.392 270.262C527.382 268.534 528.059 266.645 528.392 264.682C528.641 262.268 528.746 259.842 528.707 257.416V223.105C525.494 236.227 521.03 257.664 523.599 273.115C524.778 272.444 525.746 271.455 526.392 270.262Z" fill="white"/>
<path d="M565.565 220.169V230.28C570.031 235.751 575.66 240.157 582.043 243.178C584.377 244.306 586.812 245.211 589.316 245.882C593.51 247.383 597.924 248.181 602.379 248.241V231.531C582.35 228.213 574.606 206.282 576.044 188.321C576.498 183.064 577.487 177.866 578.995 172.809C573.397 169.003 566.983 166.566 560.27 165.694C556.045 177.678 553.851 190.778 555.027 203.001C557.149 203.812 559.074 205.066 560.674 206.679C563.935 209.92 565.565 214.416 565.565 220.169Z" fill="white"/>
<path d="M679.563 273.647C677.983 270.202 676.335 266.771 674.567 263.386C674.121 262.499 673.45 261.744 672.62 261.199C672.709 263.413 673.086 265.606 673.743 267.723C674.612 270.396 676.559 272.366 679.563 273.647Z" fill="white"/>
<path d="M672.485 246.811C674.248 246.148 675.777 244.98 676.88 243.454C677.983 241.927 678.611 240.109 678.687 238.227C678.726 236.287 678.147 234.384 677.031 232.796C675.916 231.208 674.323 230.017 672.485 229.396V246.811Z" fill="white"/>
<path d="M707.426 269.835C708.417 268.108 709.094 266.218 709.426 264.255C709.675 261.844 709.78 259.42 709.74 256.997V255.671C704.07 253.829 698.318 252.188 692.468 250.818C691.692 250.614 690.882 250.576 690.089 250.705C689.297 250.834 688.541 251.128 687.869 251.567C685.435 252.6 683.802 254.99 685.076 258.218L685.113 258.315C685.242 258.974 685.496 259.602 685.862 260.165C687.989 265.398 690.301 270.509 692.798 275.497C700.7 275.22 705.598 273.363 707.426 269.835Z" fill="white"/>
<path d="M710.527 121.45H691.921C700.355 130.146 706.325 142.355 708.579 151.92C708.654 152.175 708.744 152.425 708.849 152.669C708.916 153.013 708.991 153.365 709.059 153.71C710.512 161.297 722.099 158.084 720.646 150.512" fill="white"/>
<path d="M736.053 233.201C748.536 233.201 760.602 228.707 772.252 219.719C776.14 216.747 779.521 213.165 782.266 209.113C785.494 193.931 783.592 176.861 777.869 163.102C772.827 151.303 766.55 140.07 759.144 129.592C758.253 128.236 757.309 126.918 756.38 125.592C750.007 122.881 743.158 121.465 736.232 121.428H733.776C736.018 124.893 738.195 128.404 740.307 131.959C750.358 149.014 761.137 168.18 762.687 188.299C764.073 206.275 756.41 228.138 736.352 231.508C718.915 234.437 711.448 221.12 707.755 206.986C710.242 208.935 713.237 210.129 716.383 210.423C719.529 210.718 722.693 210.102 725.499 208.649C730.63 206.035 733.446 201.159 734.15 195.916H709.71V173.918C705.395 174.704 701.365 176.622 698.033 179.475C687.293 188.83 686.948 204.799 692.079 217.075C695.787 226.059 701.885 233.856 709.71 239.62V233.201H736.053Z" fill="white"/>
<path d="M903.199 221.322C901.582 221.793 900.132 222.717 899.022 223.984C897.911 225.251 897.185 226.809 896.93 228.475C897.904 227.768 898.827 226.995 899.694 226.161C901.122 224.753 902.306 223.118 903.199 221.322Z" fill="white"/>
<path d="M815.866 265.655C816.517 247.26 810.376 224.386 808.061 215.36C806.144 207.87 794.579 211.046 796.474 218.558L796.624 219.15C796.534 219.773 796.534 220.407 796.624 221.03C797.172 224.934 797.383 228.879 797.253 232.819C799.15 242.346 803.286 251.286 809.32 258.899C811.234 261.396 813.431 263.663 815.866 265.655Z" fill="white"/>
<path d="M884.482 275.445C884.714 268.502 882.834 261.805 875.531 260.195C864.791 257.828 858.372 270.681 855.308 278.448H855.832C867.779 278.463 877.306 277.452 884.482 275.445Z" fill="white"/>
<path d="M837.669 276.359C839.844 264.046 840.096 251.471 838.418 239.081C836.63 237.292 835.623 234.869 835.617 232.34H837.31C834.201 215.825 827.558 200.178 817.836 186.471C813.342 180.239 802.938 186.231 807.455 192.538C823.888 215.606 830.646 244.187 826.285 272.172C826.914 272.471 827.528 272.778 828.18 273.07C831.243 274.436 834.418 275.536 837.669 276.359Z" fill="white"/>
<path d="M1025.17 196.852C1025.02 199.159 1024.89 201.471 1024.78 203.788C1026.62 202.5 1029.09 201.853 1032.19 201.848C1040.89 201.848 1045.24 207.952 1045.24 220.161V256.997C1045.24 259.049 1045.28 260.742 1045.37 262.135C1046.18 262.103 1046.99 261.985 1047.77 261.783C1058.2 259.027 1057.51 244.736 1056.05 236.826C1053.19 221.27 1045.25 207.338 1037.02 194.051C1036.78 193.237 1036.35 192.496 1035.75 191.9C1035.15 191.303 1034.41 190.87 1033.59 190.643C1029.62 189.078 1024.48 192.486 1025.17 196.852Z" fill="white"/>
<path d="M1081.99 215.667C1077.56 212.738 1074.05 209.053 1072.95 204.432C1072.83 203.955 1072.66 203.493 1072.44 203.054C1071.45 195.423 1071.53 187.689 1072.71 180.082C1072.09 179.197 1071.42 178.345 1070.71 177.528C1068.12 174.527 1065.09 171.931 1061.73 169.828C1059.63 178.593 1058.95 187.633 1059.7 196.613C1060.4 215.862 1067.25 235.119 1082.11 246.331V220.363C1082.08 218.768 1082.04 217.203 1081.99 215.667Z" fill="white"/>
<path d="M954.521 270.262C954.573 270.164 954.611 270.067 954.663 269.97C952.359 270.051 950.168 270.991 948.521 272.606C947.871 273.267 947.328 274.025 946.911 274.853C950.693 274.014 953.24 272.479 954.521 270.262Z" fill="white"/>
<path d="M1027.54 172.045C1027.34 172.233 1027.28 172.27 1027.29 172.233C1027.29 172.195 1027.47 172.128 1027.54 172.045Z" fill="white"/>
<path d="M923.992 248.069C922.298 249.813 921.341 252.142 921.319 254.572C921.296 257.003 922.211 259.349 923.872 261.124C926.95 264.382 931.579 264.629 935.227 262.622H935.294C935.436 262.54 935.586 262.48 935.721 262.397C936.284 262.129 936.792 261.758 937.219 261.304C937.635 260.912 937.98 260.451 938.238 259.94C940.604 256.255 940.485 251.402 937.219 248.106C935.456 246.373 933.085 245.398 930.613 245.391C928.141 245.384 925.764 246.345 923.992 248.069Z" fill="white"/>
<path d="M1011.61 187.347C1010.7 187.312 1009.81 187.532 1009.02 187.983C1008.24 188.433 1007.59 189.095 1007.17 189.894C998.098 198.597 989.072 207.788 982.451 218.558C982.451 219.082 982.451 219.614 982.451 220.161V253.829C991.926 256.637 1000.68 244.511 1004.54 237.793C1012.03 224.827 1015.24 210.012 1017.94 195.459C1019.67 191.467 1015.75 186.988 1011.61 187.347Z" fill="white"/>
<path d="M959.314 207.518C961.392 203.743 964.77 201.856 969.448 201.856C970.914 201.839 972.374 202.046 973.778 202.47C984.376 197.571 994.001 190.665 1003.29 183.61C1003.37 183.55 1003.42 183.475 1003.51 183.408C1006.9 181.071 1006.88 175.363 1003.45 173.236C1002.8 172.655 1001.99 172.274 1001.13 172.141C1000.26 172.009 999.375 172.129 998.577 172.487C984.518 172.862 970.115 173.716 956.783 178.479C956.521 178.854 956.244 179.228 955.981 179.588C955.981 179.296 955.936 179.056 955.929 178.771C947.832 181.767 933.407 188.426 936.11 199.646C938.552 209.69 950.731 209.383 959.314 207.518Z" fill="white"/>
<path d="M1138.06 232.902C1135.74 230.631 1134.05 227.79 1133.16 224.663C1123.19 226.666 1112.9 226.464 1103.02 224.071C1100.88 223.554 1098.4 222.872 1095.8 222.026C1096.21 234.824 1100.66 246.226 1109.15 256.233C1127.13 257.237 1144.77 248.578 1159.3 236.632C1156.83 237.88 1154.09 238.515 1151.32 238.482C1148.84 238.52 1146.39 238.044 1144.11 237.084C1141.82 236.123 1139.77 234.699 1138.06 232.902Z" fill="white"/>
<path d="M1176.4 219.487C1188.53 204.674 1198.21 188.016 1205.08 170.143C1203.9 168.137 1201.98 166.675 1199.73 166.068C1198.07 165.583 1196.36 165.265 1194.64 165.117C1191.61 173.576 1187.92 181.779 1183.59 189.647C1182.87 190.046 1182.25 190.595 1181.77 191.257C1176.91 197.596 1171.38 203.399 1165.29 208.567C1167.95 211.901 1169.42 216.031 1169.45 220.296C1169.44 224.114 1168.18 227.823 1165.87 230.864C1169.61 227.289 1173.12 223.49 1176.4 219.487Z" fill="white"/>
<path d="M1175.63 272.471C1178.23 274.364 1183.35 275.312 1191 275.317C1198.64 275.322 1203.45 273.497 1205.41 269.842C1206.29 268.082 1206.89 266.201 1207.2 264.262C1207.45 261.851 1207.56 259.428 1207.52 257.004V255.304C1203.91 256.947 1200.31 258.595 1196.7 260.248C1199.04 255.159 1201.38 250.064 1203.7 244.96C1205.21 241.851 1206.49 238.634 1207.53 235.336V222.678C1205.42 219.15 1199.47 219.809 1197.21 223.127C1187.3 237.687 1179.25 253.428 1173.24 269.985C1173.9 270.94 1174.7 271.78 1175.63 272.471Z" fill="white"/>
<path d="M1181.24 165.454C1179.75 165.776 1178.31 166.305 1176.97 167.027C1178.5 166.873 1179.97 166.331 1181.24 165.454Z" fill="white"/>
<path d="M1132 192.381C1127.31 192.246 1123.76 195.616 1122.76 199.871C1122.57 200.449 1122.48 201.059 1122.51 201.668C1122.49 202.235 1122.57 202.8 1122.75 203.339C1123.67 207.615 1127.16 210.986 1131.82 210.986C1133.23 210.979 1134.61 210.643 1135.86 210.005C1136.44 209.138 1137.07 208.31 1137.76 207.525C1138.56 206.601 1139.46 205.763 1140.44 205.024C1140.87 203.959 1141.11 202.825 1141.14 201.676C1141.24 196.657 1136.9 192.523 1132 192.381Z" fill="white"/>
<path d="M1098.16 206.499C1100.23 206.474 1102.2 205.643 1103.66 204.183C1105.12 202.724 1105.95 200.751 1105.98 198.687C1105.96 197.532 1105.68 196.396 1105.17 195.36C1104.66 194.323 1103.93 193.413 1103.03 192.695C1100.51 196.991 1098.61 201.624 1097.4 206.454C1097.65 206.483 1097.91 206.497 1098.16 206.499Z" fill="white"/>
<path d="M1251.11 266.157C1249.09 266.17 1247.16 266.952 1245.7 268.344C1244.83 269.19 1244.19 270.241 1243.83 271.4C1243.55 271.97 1243.39 272.588 1243.35 273.22C1245.95 273.977 1248.61 274.525 1251.3 274.861C1254 275.19 1256.44 275.415 1258.75 275.61C1258.87 275.081 1258.93 274.541 1258.93 273.999C1258.91 271.928 1258.09 269.946 1256.62 268.479C1255.16 267.013 1253.18 266.179 1251.11 266.157Z" fill="white"/>
<path d="M1237.71 219.24C1234.21 215.592 1228.06 215.72 1224.54 219.24C1224.47 219.307 1224.42 219.39 1224.36 219.457V231.321C1224.36 231.636 1224.36 231.92 1224.36 232.235C1224.42 232.295 1224.46 232.362 1224.52 232.422C1224.9 232.826 1225.35 233.163 1225.84 233.418C1227.62 234.654 1229.78 235.23 1231.95 235.048C1234.11 234.866 1236.14 233.938 1237.7 232.422C1239.41 230.658 1240.37 228.295 1240.37 225.834C1240.38 223.373 1239.42 221.008 1237.71 219.24Z" fill="white"/>
<path d="M1261.16 195.047C1259.74 199.953 1259.21 205.181 1261.16 209.278V195.047Z" fill="white"/>
<path d="M1233.83 259.746C1237.63 257.162 1237.93 249.657 1232.39 248.765C1230.11 248.394 1227.79 248.356 1225.5 248.653C1226.11 253.475 1227.45 258.177 1229.46 262.599C1230.93 261.663 1232.39 260.719 1233.83 259.746Z" fill="white"/>
<path d="M1293.5 264.577C1293.82 266.478 1294.42 268.32 1295.29 270.044C1297.25 273.834 1302.66 275.729 1311.49 275.729C1320.48 275.729 1325.88 273.907 1327.7 270.262C1328.18 269.381 1328.59 268.47 1328.95 267.535C1329.03 265.148 1328.81 262.76 1328.29 260.427C1326.75 253.941 1322 248.189 1315.28 246.758C1308.71 245.357 1302.63 249.095 1299.89 254.997C1298.77 257.424 1298.27 260.095 1298.45 262.764C1296.74 262.669 1295.02 262.841 1293.37 263.273C1293.4 263.758 1293.45 264.192 1293.5 264.577Z" fill="white"/>
<path d="M1330.02 183.767C1330.02 181.106 1329.95 179.071 1329.81 177.663C1329.67 173.593 1328.4 170.577 1326.02 168.615C1323.23 166.233 1318.45 165.042 1311.7 165.042C1311.26 165.042 1310.86 165.042 1310.43 165.042C1309.79 177.888 1309.96 190.883 1313.59 203.301C1315.68 210.447 1320.87 223 1330.02 223.449V183.767Z" fill="white"/>
<path d="M1320.08 0C1320.08 0 1224.77 93.8272 1311.6 145.433C1409.37 108.95 1320.08 0 1320.08 0Z" fill="white"/>
<path d="M1362.88 134.857C1362.88 134.857 1325.62 132.528 1331.07 160.189C1356.87 173.708 1362.88 134.857 1362.88 134.857Z" fill="white"/>
<path d="M52.8522 32.8811C52.8522 32.8811 -12.7228 45.0823 2.21229 82.4499C20.5927 99.3474 43.0403 57.8078 52.8522 32.8811Z" fill="white"/>
<path d="M28.2325 88.7865C28.2325 88.7865 5.59776 101.842 15.9789 113.698C24.9744 117.548 27.858 99.28 28.2325 88.7865Z" fill="white"/>
<path d="M122.959 178.524C122.959 178.524 132.935 244.436 170.782 230.812C188.301 212.978 147.541 189.145 122.959 178.524Z" fill="white"/>
<path d="M173.726 246.578C173.726 246.578 172.557 272.681 188.144 270.299C196.226 264.794 182.369 252.54 173.726 246.578Z" fill="white"/>
<path d="M242.521 312.341C245.018 311.841 247.515 311.297 250.011 310.708L250.221 310.895C250.146 312.333 250.104 314.385 250.094 317.052C250.084 319.718 250.084 322.714 250.094 326.04C252.755 324.327 255.234 323.471 257.531 323.471C259.393 323.374 261.217 324.014 262.61 325.253C263.863 326.442 264.49 328.189 264.49 330.496V338.6C264.49 340.363 264.505 341.779 264.535 342.847C264.531 343.025 264.586 343.199 264.69 343.344C264.793 343.488 264.941 343.595 265.111 343.649L267.68 344.398L267.725 345.341C265.728 345.296 263.963 345.274 262.43 345.274C260.897 345.274 259.224 345.296 257.412 345.341L257.322 344.398L259.569 343.731C259.74 343.696 259.894 343.602 260.004 343.465C260.113 343.328 260.171 343.157 260.168 342.982C260.168 342.767 260.168 342.286 260.168 341.537V331.522C260.168 329.64 259.716 328.289 258.812 327.47C257.685 326.576 256.263 326.138 254.827 326.242C253.173 326.275 251.544 326.649 250.041 327.343V337.657C250.041 339.554 250.056 341.302 250.086 342.9C250.069 343.08 250.118 343.261 250.224 343.409C250.33 343.556 250.486 343.66 250.663 343.701L253.052 344.39L253.097 345.334C251.17 345.289 249.452 345.267 247.944 345.267C246.436 345.267 244.656 345.289 242.604 345.334L242.514 344.39L245.105 343.641C245.281 343.611 245.441 343.519 245.555 343.381C245.669 343.244 245.73 343.071 245.727 342.892C245.757 341.424 245.772 339.549 245.772 337.267V327.665C245.772 324.544 245.772 321.78 245.772 319.374C245.772 316.967 245.745 315.159 245.69 313.951L242.589 313.03L242.521 312.341Z" fill="white"/>
<path d="M334.888 343.686C333.646 344.472 332.289 345.061 330.866 345.431C329.615 345.767 328.327 345.946 327.031 345.963C323.661 345.963 320.939 345.002 318.867 343.079C316.795 341.157 315.759 338.486 315.759 335.065C315.631 332.018 316.67 329.037 318.665 326.729C319.642 325.654 320.843 324.806 322.184 324.247C323.525 323.688 324.973 323.431 326.424 323.493C329.136 323.493 331.248 324.3 332.761 325.912C334.274 327.525 335.023 329.757 335.008 332.608C335.008 333.046 334.986 333.484 334.941 333.919H320.47C320.47 337.21 321.244 339.564 322.792 340.982C324.34 342.4 326.759 343.109 330.05 343.109C331.629 343.101 333.204 342.963 334.761 342.697L334.888 343.686ZM330.319 332.017V331.32C330.319 329.148 329.977 327.595 329.293 326.661C328.941 326.194 328.478 325.821 327.946 325.576C327.414 325.332 326.829 325.224 326.245 325.261C325.452 325.22 324.661 325.38 323.947 325.726C323.232 326.072 322.616 326.592 322.155 327.238C321.179 328.646 320.625 330.304 320.56 332.017H330.319Z" fill="white"/>
<path d="M384.449 325.456C386.931 324.272 389.627 323.607 392.374 323.501C394.396 323.389 396.386 324.044 397.946 325.336C399.31 326.559 399.984 328.327 399.969 330.639L399.856 340.188C399.837 340.816 399.857 341.444 399.916 342.068C399.938 342.466 400.082 342.848 400.328 343.162C400.595 343.441 400.944 343.627 401.324 343.694C401.914 343.808 402.514 343.866 403.115 343.866L403.227 344.765C402.437 345.057 401.632 345.307 400.815 345.514C400.185 345.714 399.534 345.844 398.875 345.903C398.176 345.926 397.491 345.711 396.93 345.293C396.369 344.876 395.967 344.28 395.789 343.604C393.622 345.152 391.58 345.926 389.663 345.926C387.802 346.018 385.968 345.462 384.472 344.353C383.819 343.819 383.301 343.138 382.96 342.366C382.619 341.595 382.465 340.754 382.51 339.911C382.461 338.823 382.735 337.745 383.298 336.812C383.86 335.879 384.686 335.133 385.67 334.668C387.778 333.55 391.081 332.99 395.58 332.99V331.2C395.58 329.488 395.143 328.217 394.269 327.388C393.395 326.559 392.032 326.145 390.179 326.145C388.408 326.187 386.648 326.439 384.936 326.894L384.449 325.456ZM395.587 334.915C392.366 334.915 390.169 335.245 388.996 335.904C388.414 336.233 387.939 336.722 387.625 337.312C387.312 337.903 387.174 338.571 387.228 339.237C387.228 340.69 387.618 341.719 388.397 342.323C389.324 342.973 390.442 343.292 391.572 343.229C392.939 343.261 394.295 342.987 395.542 342.428L395.587 334.915Z" fill="white"/>
<path d="M447.972 324.032C449.9 324.077 451.615 324.1 453.118 324.1C454.496 324.1 456.149 324.077 458.076 324.032L458.166 324.976L455.5 325.725C456.753 329.29 458.208 333.08 459.866 337.095C460.296 338.153 460.678 339.152 461.012 340.091C461.347 339.127 461.736 338.129 462.181 337.095C463.574 333.664 465.037 329.867 466.57 325.703L463.948 324.954L463.858 324.01C465.097 324.055 466.39 324.077 467.738 324.077C469.086 324.077 470.417 324.055 471.73 324.01L471.82 324.954L469.521 325.62C469.116 325.792 468.794 326.114 468.622 326.519C467.414 329.32 466.008 332.653 464.405 336.518C462.802 340.383 461.596 343.364 460.787 345.461L458.833 345.671C457.989 343.454 456.775 340.415 455.192 336.556L451.118 326.631C451.029 326.399 450.894 326.187 450.72 326.009C450.546 325.832 450.337 325.691 450.107 325.598L447.995 324.954L447.972 324.032Z" fill="white"/>
<path d="M537.23 343.686C535.988 344.472 534.631 345.061 533.208 345.431C531.957 345.767 530.669 345.946 529.373 345.963C526.003 345.963 523.282 345.002 521.209 343.079C519.137 341.157 518.101 338.486 518.101 335.065C517.974 332.018 519.013 329.037 521.007 326.729C521.984 325.654 523.186 324.806 524.527 324.247C525.868 323.688 527.315 323.431 528.767 323.493C531.478 323.493 533.59 324.3 535.103 325.912C536.616 327.525 537.365 329.757 537.35 332.608C537.35 333.046 537.328 333.484 537.283 333.919H522.812C522.812 337.21 523.586 339.564 525.134 340.982C526.682 342.4 529.101 343.109 532.392 343.109C533.971 343.101 535.547 342.963 537.103 342.697L537.23 343.686ZM532.662 332.017V331.32C532.662 329.148 532.32 327.595 531.635 326.661C531.283 326.194 530.82 325.821 530.288 325.576C529.756 325.332 529.171 325.224 528.587 325.261C527.794 325.22 527.004 325.38 526.289 325.726C525.574 326.072 524.958 326.592 524.497 327.238C523.521 328.646 522.967 330.304 522.902 332.017H532.662Z" fill="white"/>
<path d="M586.238 325.111C588.809 324.612 591.238 324.075 593.525 323.501L593.757 323.658V326.324C596.424 324.442 598.908 323.501 601.21 323.501C602.151 323.409 603.1 323.528 603.989 323.848C604.879 324.168 605.686 324.682 606.352 325.352C607.019 326.022 607.528 326.832 607.843 327.723C608.159 328.614 608.272 329.564 608.176 330.504V338.608C608.176 340.52 608.191 341.936 608.221 342.855C608.215 343.036 608.271 343.215 608.38 343.36C608.489 343.506 608.644 343.61 608.82 343.656L611.366 344.405L611.411 345.349C609.414 345.304 607.649 345.281 606.116 345.281C604.583 345.281 602.91 345.304 601.098 345.349L601.008 344.405L603.307 343.739C603.475 343.699 603.624 343.603 603.729 343.466C603.834 343.33 603.889 343.162 603.884 342.99C603.884 342.775 603.884 342.293 603.884 341.544V331.53C603.884 329.647 603.435 328.297 602.536 327.478C601.408 326.584 599.986 326.145 598.551 326.249C596.87 326.288 595.224 326.746 593.765 327.583V337.619C593.765 339.532 593.78 341.279 593.81 342.862C593.803 343.028 593.851 343.192 593.948 343.328C594.044 343.463 594.182 343.563 594.342 343.611L596.731 344.36L596.776 345.304C594.878 345.259 593.176 345.237 591.668 345.237C590.16 345.237 588.38 345.259 586.327 345.304L586.238 344.36L588.949 343.611C589.108 343.563 589.247 343.463 589.343 343.328C589.439 343.192 589.488 343.028 589.481 342.862C589.481 341.864 589.481 340.922 589.481 340.038V332.204C589.481 330.207 589.451 328.347 589.391 326.624L586.335 325.8L586.238 325.111Z" fill="white"/>
<path d="M740.284 334.271C740.284 337.766 739.231 340.588 737.124 342.735C736.081 343.8 734.828 344.637 733.444 345.193C732.061 345.749 730.577 346.011 729.087 345.963C727.663 346.022 726.243 345.782 724.918 345.259C723.593 344.735 722.393 343.939 721.395 342.922C720.404 341.856 719.635 340.604 719.132 339.239C718.63 337.873 718.403 336.421 718.466 334.968C718.409 333.46 718.652 331.956 719.179 330.542C719.706 329.128 720.507 327.832 721.537 326.729C722.591 325.654 723.859 324.814 725.259 324.262C726.659 323.709 728.16 323.458 729.664 323.523C731.081 323.461 732.495 323.691 733.82 324.199C735.144 324.706 736.351 325.481 737.363 326.474C738.35 327.51 739.117 328.735 739.619 330.075C740.12 331.415 740.347 332.842 740.284 334.271ZM723.177 334.481C723.074 336.914 723.627 339.331 724.78 341.477C725.243 342.324 725.934 343.025 726.774 343.502C727.615 343.978 728.571 344.211 729.536 344.173C730.429 344.212 731.315 344.012 732.105 343.595C732.895 343.177 733.559 342.558 734.03 341.799C735.059 340.216 735.573 337.869 735.573 334.758C735.573 331.832 735.031 329.527 733.948 327.845C733.461 327.04 732.767 326.381 731.938 325.937C731.109 325.493 730.176 325.28 729.237 325.321C728.358 325.278 727.483 325.463 726.696 325.856C725.909 326.25 725.236 326.839 724.743 327.568C723.699 329.101 723.177 331.405 723.177 334.481Z" fill="white"/>
<path d="M796.781 326.534V339.005C796.781 340.443 796.796 341.706 796.826 342.795C796.831 342.968 796.892 343.135 797 343.27C797.108 343.405 797.258 343.501 797.426 343.544L800.339 344.42L800.407 345.364C798.095 345.319 796.192 345.297 794.699 345.297C793.206 345.297 791.419 345.319 789.336 345.364L789.224 344.42L791.793 343.671C791.972 343.638 792.134 343.547 792.255 343.411C792.376 343.275 792.448 343.103 792.46 342.922C792.49 341.973 792.505 340.975 792.505 339.926V326.399L789.381 325.65L789.224 324.684L792.535 324.407V324.317C792.535 319.998 793.476 316.652 795.358 314.28C796.245 313.13 797.393 312.208 798.707 311.589C800.022 310.971 801.464 310.674 802.916 310.723C804.432 310.718 805.943 310.912 807.41 311.299C806.91 313.167 806.466 315.089 806.076 317.067L805.11 317.254L803.612 312.663C803.17 312.612 802.724 312.59 802.279 312.595C801.449 312.575 800.629 312.786 799.911 313.204C799.193 313.622 798.605 314.23 798.212 314.962C797.263 316.54 796.789 319.426 796.789 323.62V324.369H802.504V326.549L796.781 326.534Z" fill="white"/>
<path d="M922.074 325.823C921.131 325.571 920.159 325.447 919.183 325.456C917.968 325.4 916.763 325.691 915.708 326.294C915.303 326.522 914.967 326.854 914.735 327.256C914.503 327.658 914.384 328.115 914.389 328.579C914.368 328.986 914.434 329.393 914.583 329.773C914.731 330.152 914.959 330.496 915.251 330.781C916.205 331.515 917.294 332.055 918.456 332.369L920.336 333.013C922.04 333.509 923.623 334.351 924.988 335.485C925.483 335.949 925.873 336.515 926.131 337.143C926.389 337.77 926.51 338.446 926.486 339.125C926.521 340.101 926.313 341.071 925.881 341.947C925.448 342.824 924.804 343.578 924.007 344.143C922.17 345.416 919.97 346.058 917.737 345.971C915.288 345.947 912.864 345.465 910.592 344.548C911.091 342.55 911.513 340.605 911.858 338.713L912.757 338.578L914.412 343.514C915.483 343.881 916.613 344.051 917.745 344.016C918.943 344.075 920.132 343.77 921.153 343.139C921.559 342.875 921.89 342.509 922.113 342.079C922.336 341.648 922.444 341.167 922.426 340.683C922.449 340.257 922.385 339.832 922.237 339.432C922.089 339.033 921.86 338.668 921.565 338.361C920.774 337.663 919.838 337.151 918.823 336.863L916.434 336.061C914.367 335.372 912.939 334.541 912.15 333.567C911.342 332.538 910.923 331.257 910.966 329.95C910.932 329.033 911.123 328.122 911.521 327.296C911.919 326.469 912.513 325.753 913.251 325.208C915.005 323.99 917.11 323.382 919.243 323.478C921.397 323.451 923.541 323.793 925.579 324.489C925.15 326.237 924.761 328.082 924.411 330.024L923.535 330.182L922.074 325.823Z" fill="white"/>
<path d="M974.594 325.89L974.482 325.141C977.053 324.642 979.487 324.105 981.784 323.531L982.017 323.688V325.935C984.001 324.455 986.389 323.614 988.862 323.523C990.142 323.466 991.418 323.692 992.599 324.187C993.78 324.682 994.837 325.432 995.693 326.384C997.44 328.455 998.344 331.108 998.225 333.814C998.225 337.564 997.139 340.53 994.967 342.712C992.795 344.895 989.711 345.986 985.717 345.986C984.476 345.98 983.237 345.865 982.017 345.641V350.667C982.017 352.2 982.032 353.271 982.061 353.88C982.051 354.069 982.108 354.255 982.222 354.405C982.336 354.556 982.499 354.662 982.683 354.704L985.679 355.55L985.747 356.494C983.36 356.449 981.412 356.427 979.904 356.427C978.396 356.427 976.616 356.449 974.564 356.494L974.474 355.55L977.118 354.801C977.286 354.762 977.434 354.666 977.54 354.529C977.645 354.393 977.699 354.224 977.695 354.052C977.725 352.934 977.74 351.241 977.74 348.974V339.627C977.74 332.846 977.71 328.559 977.65 326.766L974.594 325.89ZM982.009 343.551C983.273 343.834 984.564 343.98 985.859 343.986C988.395 343.986 990.305 343.189 991.589 341.596C992.872 340.004 993.514 337.722 993.514 334.751C993.514 331.949 992.902 329.837 991.679 328.414C991.019 327.69 990.206 327.122 989.299 326.753C988.392 326.384 987.413 326.222 986.436 326.279C984.909 326.252 983.4 326.599 982.039 327.291L982.009 343.551Z" fill="white"/>
<path d="M1046.63 325.111C1049.19 324.612 1051.62 324.075 1053.94 323.501L1054.17 323.658V326.347C1056.6 324.584 1059.5 323.592 1062.5 323.501L1062.62 323.635C1062.17 325.917 1061.74 328.282 1061.31 330.728L1060.38 330.886C1060.05 329.814 1059.63 328.767 1059.14 327.755C1058.98 327.392 1058.72 327.085 1058.38 326.874C1058.05 326.663 1057.66 326.558 1057.26 326.572C1056.14 326.672 1055.07 327.067 1054.16 327.717V337.664C1054.16 340.051 1054.18 341.759 1054.21 342.787C1054.2 342.96 1054.26 343.128 1054.36 343.264C1054.47 343.401 1054.61 343.497 1054.78 343.536L1057.84 344.413L1057.91 345.356C1055.52 345.311 1053.57 345.289 1052.06 345.289C1050.56 345.289 1048.77 345.311 1046.72 345.356L1046.63 344.413L1049.3 343.664C1049.47 343.624 1049.62 343.528 1049.72 343.392C1049.83 343.255 1049.88 343.087 1049.88 342.915C1049.88 342.256 1049.88 341.314 1049.88 340.091V332.256C1049.88 329.76 1049.85 327.9 1049.79 326.676L1046.73 325.852L1046.63 325.111Z" fill="white"/>
<path d="M1110.27 325.111C1112.95 324.612 1115.45 324.075 1117.76 323.501L1117.97 323.658C1117.88 325.655 1117.83 327.845 1117.83 330.227V339.042C1117.83 340.88 1117.85 342.151 1117.88 342.855C1117.88 343.032 1117.93 343.206 1118.03 343.35C1118.14 343.495 1118.29 343.602 1118.45 343.656L1121.12 344.405L1121.17 345.349C1119.05 345.304 1117.24 345.282 1115.74 345.282C1114.23 345.282 1112.44 345.304 1110.37 345.349L1110.28 344.405L1112.95 343.656C1113.12 343.617 1113.27 343.521 1113.37 343.384C1113.48 343.248 1113.53 343.079 1113.53 342.907C1113.56 342.308 1113.57 341.309 1113.57 339.911V332.241C1113.57 330.244 1113.54 328.392 1113.48 326.684L1110.43 325.86L1110.27 325.111ZM1118.03 315.374C1118.04 315.738 1117.98 316.102 1117.86 316.443C1117.73 316.784 1117.53 317.095 1117.28 317.359C1117.02 317.611 1116.72 317.808 1116.38 317.937C1116.04 318.066 1115.68 318.124 1115.32 318.108C1114.98 318.117 1114.63 318.055 1114.31 317.926C1113.99 317.797 1113.7 317.604 1113.45 317.359C1113.2 317.114 1113.01 316.821 1112.88 316.497C1112.75 316.174 1112.69 315.827 1112.7 315.479C1112.68 315.117 1112.74 314.756 1112.87 314.418C1113 314.08 1113.2 313.773 1113.45 313.516C1113.72 313.265 1114.03 313.07 1114.38 312.942C1114.72 312.813 1115.08 312.754 1115.45 312.767C1116.12 312.739 1116.78 312.973 1117.29 313.419C1117.55 313.668 1117.75 313.973 1117.88 314.311C1118.01 314.65 1118.06 315.013 1118.04 315.374H1118.03Z" fill="white"/>
<path d="M1170.8 325.111C1173.37 324.612 1175.8 324.075 1178.09 323.501L1178.32 323.658V326.324C1180.99 324.442 1183.47 323.501 1185.77 323.501C1186.72 323.409 1187.66 323.528 1188.55 323.848C1189.44 324.168 1190.25 324.682 1190.92 325.352C1191.58 326.022 1192.09 326.832 1192.41 327.723C1192.72 328.614 1192.84 329.564 1192.74 330.504V338.608C1192.74 340.52 1192.76 341.936 1192.79 342.855C1192.78 343.036 1192.84 343.215 1192.94 343.36C1193.05 343.506 1193.21 343.61 1193.38 343.656L1195.93 344.405L1195.98 345.349C1193.98 345.304 1192.21 345.281 1190.68 345.281C1189.15 345.281 1187.47 345.304 1185.66 345.349L1185.57 344.405L1187.87 343.739C1188.04 343.699 1188.19 343.603 1188.29 343.466C1188.4 343.33 1188.45 343.162 1188.45 342.99C1188.45 342.775 1188.45 342.293 1188.45 341.544V331.53C1188.45 329.647 1188 328.297 1187.09 327.478C1185.97 326.584 1184.54 326.145 1183.11 326.249C1181.43 326.288 1179.78 326.746 1178.32 327.583V337.619C1178.32 339.532 1178.34 341.279 1178.37 342.862C1178.36 343.028 1178.41 343.192 1178.5 343.328C1178.6 343.463 1178.74 343.563 1178.9 343.611L1181.29 344.36L1181.33 345.304C1179.44 345.259 1177.73 345.237 1176.22 345.237C1174.72 345.237 1172.94 345.259 1170.88 345.304L1170.79 344.36L1173.51 343.611C1173.67 343.563 1173.8 343.463 1173.9 343.328C1174 343.192 1174.04 343.028 1174.04 342.862C1174.04 341.864 1174.04 340.922 1174.04 340.038V332.204C1174.04 330.207 1174.01 328.347 1173.95 326.624L1170.89 325.8L1170.8 325.111Z" fill="white"/>
<path d="M1260.9 326.399C1262.06 327.626 1262.69 329.257 1262.67 330.946C1262.71 332.057 1262.5 333.165 1262.06 334.185C1261.61 335.205 1260.94 336.11 1260.1 336.833C1258.29 338.33 1255.99 339.111 1253.64 339.027C1252.29 339.048 1250.95 338.815 1249.69 338.338C1249.02 339.263 1248.59 340.346 1248.45 341.484C1248.44 341.675 1248.5 341.862 1248.62 342.015C1248.73 342.168 1248.89 342.277 1249.08 342.323C1249.84 342.506 1250.63 342.579 1251.41 342.54C1252.27 342.54 1253.27 342.518 1254.41 342.473C1255.54 342.428 1256.62 342.405 1257.62 342.405C1259.72 342.325 1261.8 342.803 1263.66 343.791C1264.4 344.185 1265.02 344.78 1265.44 345.508C1265.86 346.237 1266.07 347.069 1266.04 347.91C1266.04 350.667 1264.69 352.841 1261.98 354.434C1259.17 356.053 1255.97 356.879 1252.73 356.824C1250.4 356.922 1248.09 356.452 1245.99 355.453C1244.3 354.544 1243.46 353.361 1243.46 351.903C1243.46 350.14 1244.7 348.165 1247.2 345.978C1245.62 345.379 1244.83 344.582 1244.83 343.589C1244.83 342.196 1245.93 340.251 1248.11 337.754C1246.99 337.132 1246.07 336.213 1245.44 335.1C1244.81 333.986 1244.49 332.72 1244.53 331.44C1244.5 330.344 1244.71 329.253 1245.16 328.253C1245.61 327.253 1246.29 326.37 1247.13 325.673C1249.04 324.156 1251.44 323.382 1253.87 323.493C1254.86 323.517 1255.84 323.61 1256.82 323.77C1257.73 323.955 1258.65 324.063 1259.57 324.092C1261.94 324.092 1264.09 324.07 1266.03 324.025L1266.14 324.969L1260.9 326.399ZM1248.52 346.24C1247.59 347.494 1247.04 348.994 1246.96 350.554C1246.94 351.175 1247.08 351.79 1247.36 352.341C1247.65 352.893 1248.07 353.361 1248.59 353.7C1249.92 354.516 1251.47 354.908 1253.03 354.824C1255.07 354.865 1257.09 354.347 1258.86 353.326C1259.62 352.936 1260.26 352.342 1260.7 351.61C1261.14 350.879 1261.37 350.038 1261.36 349.184C1261.38 348.734 1261.27 348.288 1261.06 347.892C1260.84 347.497 1260.52 347.167 1260.14 346.937C1259.32 346.407 1257.77 346.143 1255.51 346.143C1254.69 346.143 1253.81 346.165 1252.86 346.21C1251.9 346.255 1250.98 346.278 1250.09 346.278C1249.59 346.293 1249.07 346.28 1248.52 346.24ZM1249.27 331.058C1249.17 332.678 1249.57 334.288 1250.42 335.672C1250.79 336.205 1251.3 336.635 1251.88 336.92C1252.46 337.206 1253.11 337.338 1253.76 337.305C1254.37 337.345 1254.99 337.228 1255.54 336.966C1256.09 336.704 1256.57 336.305 1256.93 335.807C1257.64 334.425 1258 332.891 1257.99 331.338C1257.98 329.785 1257.59 328.257 1256.86 326.886C1256.49 326.349 1255.98 325.917 1255.39 325.631C1254.8 325.345 1254.15 325.215 1253.5 325.253C1252.89 325.216 1252.28 325.334 1251.72 325.596C1251.17 325.858 1250.69 326.255 1250.33 326.751C1249.53 328.041 1249.15 329.544 1249.23 331.058H1249.27Z" fill="white"/>
<path d="M1325.52 325.823C1324.57 325.571 1323.6 325.447 1322.62 325.456C1321.41 325.4 1320.2 325.691 1319.15 326.294C1318.74 326.522 1318.41 326.854 1318.18 327.256C1317.94 327.658 1317.83 328.115 1317.83 328.579C1317.81 328.986 1317.88 329.393 1318.02 329.773C1318.17 330.152 1318.4 330.496 1318.69 330.781C1319.65 331.515 1320.74 332.055 1321.9 332.369L1323.78 333.013C1325.48 333.509 1327.06 334.351 1328.43 335.485C1328.92 335.949 1329.31 336.515 1329.57 337.143C1329.83 337.77 1329.95 338.446 1329.93 339.125C1329.96 340.101 1329.75 341.071 1329.32 341.947C1328.89 342.824 1328.25 343.578 1327.45 344.143C1325.61 345.416 1323.41 346.058 1321.18 345.971C1318.73 345.947 1316.31 345.465 1314.03 344.548C1314.53 342.55 1314.95 340.605 1315.3 338.713L1316.2 338.578L1317.85 343.514C1318.92 343.881 1320.05 344.051 1321.19 344.016C1322.38 344.075 1323.57 343.77 1324.59 343.139C1325 342.875 1325.33 342.509 1325.55 342.079C1325.78 341.648 1325.89 341.167 1325.87 340.683C1325.89 340.257 1325.83 339.832 1325.68 339.432C1325.53 339.033 1325.3 338.668 1325.01 338.361C1324.22 337.663 1323.28 337.151 1322.26 336.863L1319.88 336.061C1317.81 335.372 1316.38 334.541 1315.59 333.567C1314.78 332.538 1314.36 331.257 1314.41 329.95C1314.37 329.033 1314.56 328.122 1314.96 327.296C1315.36 326.469 1315.95 325.753 1316.69 325.208C1318.45 323.99 1320.55 323.382 1322.68 323.478C1324.84 323.451 1326.98 323.793 1329.02 324.489C1328.59 326.237 1328.2 328.082 1327.85 330.024L1326.98 330.182L1325.52 325.823Z" fill="white"/>
</svg>
