<svg width="64" height="64" viewBox="0 0 64 64" fill="none" xmlns="http://www.w3.org/2000/svg">
<rect x="0.490479" width="62.7177" height="63.6561" rx="10" fill="black"/>
<g clip-path="url(#clip0_25_1397)">
<path d="M37.3315 37.5701C37.8784 38.1482 38.769 38.1482 39.3237 37.5701L47.8315 28.6482C50.3003 26.0545 50.1597 21.7576 47.394 19.367C44.9878 17.281 41.4019 17.656 39.1987 19.9685L38.3237 20.8826L37.4565 19.9764C35.2534 17.656 31.6675 17.281 29.2612 19.367C26.5034 21.7576 26.355 26.0545 28.8237 28.6482L37.3315 37.5701ZM59.9878 43.6326C59.0659 42.7967 57.6284 42.8514 56.6597 43.6326L49.4409 49.406C48.5581 50.117 47.4565 50.4998 46.3159 50.4998H37.0737C36.3862 50.4998 35.8237 49.9373 35.8237 49.2498C35.8237 48.5623 36.3862 47.9998 37.0737 47.9998H43.1909C44.4331 47.9998 45.5894 47.1482 45.7925 45.9217C46.0503 44.3592 44.8472 42.9998 43.3237 42.9998H30.8237C28.7144 42.9998 26.6753 43.7264 25.0347 45.0545L21.4019 47.9998H17.0737C16.3862 47.9998 15.8237 48.5623 15.8237 49.2498V56.7498C15.8237 57.4373 16.3862 57.9998 17.0737 57.9998H44.9487C46.0815 57.9998 47.1831 57.617 48.0737 56.906L59.8862 47.4529C61.0737 46.5076 61.1675 44.6951 59.9878 43.6326Z" fill="white"/>
</g>
<defs>
<clipPath id="clip0_25_1397">
<rect width="45" height="40" fill="white" transform="translate(15.8237 18)"/>
</clipPath>
</defs>
</svg>
