<svg width="63" height="64" viewBox="0 0 63 64" fill="none" xmlns="http://www.w3.org/2000/svg">
<rect width="62.7177" height="63.6561" rx="10" fill="black"/>
<path d="M31.1733 37.4662C27.7016 37.4662 27.3997 35.7955 27.3997 35.5235H23.6261C23.6261 37.3108 24.8714 40.4774 29.2865 41.1962V43.2943H33.0601V41.1962C36.8337 40.5357 38.7205 38.0296 38.7205 35.5235C38.7205 33.3477 37.7394 29.6954 31.1733 29.6954C27.3997 29.6954 27.3997 28.4715 27.3997 27.7527C27.3997 27.0339 28.7205 25.81 31.1733 25.81C33.6262 25.81 33.796 27.0534 33.8148 27.7527H37.5885C37.563 26.4293 37.1006 25.1542 36.2776 24.1373C35.4546 23.1204 34.3198 22.4222 33.0601 22.1578V19.9819H29.2865V22.0995C25.5129 22.7406 23.6261 25.2466 23.6261 27.7527C23.6261 29.9285 24.6072 33.5808 31.1733 33.5808C34.9469 33.5808 34.9469 34.9018 34.9469 35.5235C34.9469 36.1452 33.7771 37.4662 31.1733 37.4662Z" fill="#F8F8F8"/>
<path d="M18.1789 12.655H12.4692V16.5182H16.2757V49.3555C16.2757 49.8678 16.4762 50.3591 16.8331 50.7214C17.19 51.0836 17.6741 51.2871 18.1789 51.2871H44.8238C45.3286 51.2871 45.8127 51.0836 46.1696 50.7214C46.5265 50.3591 46.7271 49.8678 46.7271 49.3555V16.5182H50.5335V12.655H18.1789ZM42.9206 47.4239H20.0821V16.5182H42.9206V47.4239Z" fill="#F8F8F8"/>
</svg>
