<svg width="63" height="64" viewBox="0 0 63 64" fill="none" xmlns="http://www.w3.org/2000/svg">
<rect width="62.7177" height="63.6561" rx="10" fill="black"/>
<path d="M48.5444 23.6081H39.9516C38.8124 23.6093 37.7203 24.0691 36.9148 24.8866C36.1093 25.7041 35.6563 26.8126 35.6552 27.9688V36.69C35.6559 37.4608 35.9579 38.1998 36.4949 38.7448C37.0319 39.2898 37.76 39.5963 38.5194 39.5971V49.7719C38.5202 50.5427 38.8222 51.2817 39.3592 51.8267C39.8962 52.3717 40.6243 52.6782 41.3837 52.679H47.1122C47.8716 52.6782 48.5997 52.3717 49.1367 51.8267C49.6737 51.2817 49.9757 50.5427 49.9765 49.7719V39.5971C50.7359 39.5963 51.464 39.2898 52.001 38.7448C52.538 38.1998 52.84 37.4608 52.8408 36.69V27.9688C52.8396 26.8126 52.3866 25.7041 51.5811 24.8866C50.7756 24.0691 49.6835 23.6093 48.5444 23.6081ZM49.9765 36.69H47.1122V49.7719H41.3837V36.69H38.5194V27.9688C38.5194 27.5833 38.6703 27.2136 38.9389 26.941C39.2075 26.6684 39.5717 26.5152 39.9516 26.5152H48.5444C48.9242 26.5152 49.2885 26.6684 49.557 26.941C49.8256 27.2136 49.9765 27.5833 49.9765 27.9688V36.69Z" fill="white"/>
<path d="M38.5194 16.3404C38.5194 15.1905 38.8554 14.0663 39.4848 13.1102C40.1143 12.154 41.009 11.4088 42.0557 10.9687C43.1025 10.5286 44.2543 10.4135 45.3655 10.6378C46.4768 10.8622 47.4975 11.416 48.2987 12.2291C49.0998 13.0422 49.6454 14.0783 49.8664 15.2061C50.0875 16.334 49.974 17.5031 49.5405 18.5655C49.1069 19.6279 48.3726 20.536 47.4306 21.1749C46.4885 21.8137 45.381 22.1548 44.248 22.1548C42.7291 22.1532 41.2729 21.5401 40.1989 20.4501C39.125 19.36 38.5209 17.882 38.5194 16.3404ZM41.3837 16.3404C41.3837 16.9154 41.5517 17.4775 41.8664 17.9556C42.1811 18.4336 42.6285 18.8063 43.1518 19.0263C43.6752 19.2463 44.2511 19.3039 44.8068 19.1917C45.3624 19.0796 45.8727 18.8027 46.2733 18.3961C46.6739 17.9895 46.9467 17.4715 47.0572 16.9076C47.1677 16.3437 47.111 15.7591 46.8942 15.2279C46.6774 14.6967 46.3103 14.2427 45.8393 13.9232C45.3682 13.6038 44.8145 13.4333 44.248 13.4333C43.4885 13.4341 42.7604 13.7406 42.2234 14.2856C41.6865 14.8307 41.3844 15.5697 41.3837 16.3404Z" fill="white"/>
<path d="M29.9265 32.3294V27.9688C29.9254 26.8126 29.4723 25.7041 28.6668 24.8866C27.8614 24.0691 26.7692 23.6093 25.6301 23.6081H17.0373C15.8981 23.6093 14.806 24.0691 14.0005 24.8866C13.195 25.7041 12.742 26.8126 12.7409 27.9688V32.3294H9.87659V35.2365H32.7908V32.3294H29.9265ZM15.6051 27.9688C15.6051 27.5833 15.756 27.2135 16.0246 26.941C16.2932 26.6684 16.6574 26.5152 17.0373 26.5152H25.6301C26.0099 26.5152 26.3742 26.6684 26.6428 26.941C26.9113 27.2135 27.0622 27.5833 27.0622 27.9688V32.3294H15.6051V27.9688Z" fill="white"/>
<path d="M15.6052 16.3404C15.6052 15.1905 15.9412 14.0663 16.5707 13.1102C17.2001 12.154 18.0948 11.4088 19.1416 10.9687C20.1883 10.5286 21.3401 10.4135 22.4514 10.6378C23.5626 10.8622 24.5833 11.416 25.3845 12.2291C26.1856 13.0422 26.7312 14.0783 26.9523 15.2061C27.1733 16.334 27.0598 17.5031 26.6263 18.5655C26.1927 19.6279 25.4584 20.536 24.5164 21.1749C23.5743 21.8137 22.4668 22.1548 21.3338 22.1548C19.8149 22.1532 18.3587 21.5401 17.2848 20.4501C16.2108 19.36 15.6067 17.882 15.6052 16.3404ZM18.4695 16.3404C18.4695 16.9154 18.6375 17.4775 18.9522 17.9556C19.2669 18.4336 19.7143 18.8063 20.2377 19.0263C20.761 19.2463 21.337 19.3039 21.8926 19.1917C22.4482 19.0796 22.9585 18.8027 23.3591 18.3961C23.7597 17.9895 24.0325 17.4715 24.143 16.9076C24.2535 16.3437 24.1968 15.7591 23.98 15.2279C23.7632 14.6967 23.3961 14.2427 22.9251 13.9232C22.4541 13.6038 21.9003 13.4333 21.3338 13.4333C20.5744 13.4341 19.8463 13.7406 19.3093 14.2856C18.7723 14.8307 18.4703 15.5697 18.4695 16.3404Z" fill="white"/>
</svg>
