<svg width="446" height="465" viewBox="0 0 446 465" fill="none" xmlns="http://www.w3.org/2000/svg">
<path d="M392.115 464.007C420.674 464.007 443.826 450.641 443.826 434.154C443.826 417.666 420.674 404.3 392.115 404.3C363.556 404.3 340.404 417.666 340.404 434.154C340.404 450.641 363.556 464.007 392.115 464.007Z" fill="#EBEBEB"/>
<path d="M61.6583 275.257C88.8175 275.257 110.834 262.546 110.834 246.867C110.834 231.187 88.8175 218.477 61.6583 218.477C34.4991 218.477 12.4822 231.187 12.4822 246.867C12.4822 262.546 34.4991 275.257 61.6583 275.257Z" fill="#EBEBEB"/>
<path d="M139.256 320.445C166.415 320.445 188.432 307.735 188.432 292.055C188.432 276.376 166.415 263.665 139.256 263.665C112.097 263.665 90.0801 276.376 90.0801 292.055C90.0801 307.735 112.097 320.445 139.256 320.445Z" fill="#EBEBEB"/>
<path d="M217.84 366.376C245 366.376 267.017 353.666 267.017 337.986C267.017 322.307 245 309.596 217.84 309.596C190.681 309.596 168.664 322.307 168.664 337.986C168.664 353.666 190.681 366.376 217.84 366.376Z" fill="#EBEBEB"/>
<path d="M297.74 411.83C324.899 411.83 346.916 399.119 346.916 383.44C346.916 367.761 324.899 355.05 297.74 355.05C270.58 355.05 248.563 367.761 248.563 383.44C248.563 399.119 270.58 411.83 297.74 411.83Z" fill="#EBEBEB"/>
<path d="M348.475 24.3495L357.945 29.8217C357.945 29.3975 357.871 28.9733 357.871 28.5703V25.8448C357.871 20.9558 361.296 18.9726 365.528 21.4118C367.354 22.5415 368.914 24.054 370.099 25.8448C370.788 19.6938 375.613 17.3607 381.467 20.7861C387.83 24.4449 392.932 33.332 392.932 40.639V44.7538C392.971 46.3933 392.641 48.0207 391.966 49.5155L399.836 54.0545C401.07 54.8632 402.097 55.9506 402.834 57.229C403.57 58.5074 403.997 59.9411 404.078 61.4145C404.078 64.1294 402.169 65.2323 399.836 63.8749L348.475 34.1804C347.237 33.3755 346.207 32.289 345.47 31.0098C344.733 29.7306 344.309 28.295 344.233 26.8205C344.222 24.0949 346.11 22.992 348.475 24.3495Z" fill="#EBEBEB"/>
<path d="M307.931 51.9652L315.079 56.1013C315.079 55.7725 315.026 55.4649 315.026 55.1468V53.0788C315.026 49.3882 317.614 47.8929 320.806 49.7382C322.182 50.5813 323.358 51.714 324.253 53.0576C324.772 48.4125 328.41 46.6945 332.832 49.2397C337.615 51.9971 341.486 58.7101 341.486 64.2248V67.3215C341.518 68.5599 341.267 69.7892 340.754 70.9167L346.693 74.3527C347.621 74.9631 348.393 75.7831 348.945 76.7466C349.498 77.7101 349.816 78.79 349.875 79.8992C349.875 81.946 348.432 82.7838 346.693 81.7551L307.931 59.3783C307.003 58.7656 306.232 57.9436 305.679 56.9784C305.126 56.0132 304.808 54.9318 304.75 53.8211C304.75 51.7744 306.139 50.9472 307.931 51.9652Z" fill="#EBEBEB"/>
<path d="M410.854 419.953C413.421 416.92 420.335 414.174 428.989 413.59C437.643 413.007 446.413 411.957 445.183 406.803C443.857 401.246 436.094 399.867 428.003 401.893C419.169 404.099 411.777 411.681 410.897 416.984L410.854 419.953Z" fill="#37474F"/>
<path d="M410.971 418.108C411.085 418.124 411.201 418.107 411.306 418.06C411.411 418.014 411.5 417.938 411.565 417.843C419.9 405.509 435.097 405.509 439.69 406.888C439.766 406.912 439.847 406.921 439.927 406.914C440.007 406.907 440.085 406.884 440.156 406.847C440.227 406.809 440.29 406.758 440.341 406.696C440.392 406.634 440.43 406.562 440.453 406.485C440.5 406.33 440.483 406.163 440.408 406.021C440.333 405.878 440.204 405.77 440.05 405.721C435.193 404.247 419.285 404.226 410.547 417.175C410.46 417.311 410.43 417.475 410.461 417.633C410.493 417.791 410.584 417.931 410.716 418.023C410.795 418.068 410.881 418.097 410.971 418.108Z" fill="white"/>
<path d="M410.854 419.953C410.854 419.953 417.164 404.64 428.565 397.566C431.948 395.445 435.628 392.751 438.194 390.885C443.698 386.876 442.436 381.467 435.723 380.587C425.754 379.293 417.27 386.621 412.54 397.121C407.811 407.62 410.854 419.953 410.854 419.953Z" fill="#455A64"/>
<path d="M410.95 412.668C411.097 412.691 411.247 412.657 411.37 412.575C411.494 412.493 411.582 412.367 411.618 412.222C416.104 393.462 432.011 385.996 436.105 385.55C436.183 385.542 436.259 385.519 436.328 385.482C436.397 385.444 436.458 385.393 436.507 385.332C436.557 385.271 436.593 385.201 436.615 385.125C436.637 385.05 436.644 384.971 436.635 384.893C436.617 384.737 436.537 384.595 436.414 384.497C436.291 384.4 436.134 384.355 435.978 384.373C431.015 384.903 415.075 392.73 410.462 411.947C410.443 412.022 410.439 412.101 410.451 412.179C410.462 412.256 410.489 412.33 410.529 412.398C410.57 412.465 410.623 412.523 410.686 412.569C410.749 412.616 410.821 412.649 410.897 412.668H410.95Z" fill="white"/>
<path d="M414.12 236.887C419.2 235.689 422.499 239.973 425.786 247.959C429.074 255.945 434.896 275.395 436.253 280.729C436.869 283.115 421.735 304.506 422.382 304.188C422.583 304.092 416.475 293.879 416.475 293.879L423.898 279.668L418.596 266.751L414.12 236.887Z" fill="#FFA8A7"/>
<path d="M421.343 417.175C422.032 417.44 422.202 418.744 422.308 421.353C422.382 423.336 422.806 426.783 420.494 427.472C418.182 428.162 414.799 427.801 413.315 425.945C411.459 423.623 410.207 421.576 407.577 418.744C405.286 416.284 402.805 413.983 401.882 410.536C401.044 407.418 401.744 406.071 403.865 405.159C406.792 403.918 411.384 407.991 413.675 408.627C415.648 409.125 420.653 416.857 421.343 417.175Z" fill="#263238"/>
<path d="M421.343 412.933V417.938C420.141 418.71 418.751 419.139 417.323 419.179C415.894 419.218 414.483 418.866 413.24 418.161C413.102 417.854 412.699 412.933 412.699 412.933H421.343Z" fill="#FFA8A7"/>
<path d="M397.502 434.143C397.502 434.143 398.414 436.922 398.913 439.361C399.305 441.302 399.867 444.536 399.188 445.989C398.51 447.442 395.869 448.386 391.765 448.354C389.114 448.354 384.967 450.146 382.135 451.726C379.304 453.307 376.027 453.37 372.93 452.999C369.282 452.575 365.506 450.454 364.913 448.948C364.319 447.442 365.082 446.71 373.683 443.041C373.757 443.041 382.75 438.947 386.908 434.355L397.502 434.143Z" fill="#263238"/>
<path d="M397.502 430.686C397.502 430.686 397.502 433.061 397.502 434.419C397.502 435.776 395.901 437.802 391.754 437.653C388.838 437.547 386.791 436.763 386.908 434.366V430.898L397.502 430.686Z" fill="#FFA8A7"/>
<path d="M426.709 375.91C426.444 365.305 424.27 360.702 424.27 360.702C424.27 360.702 425.076 347.647 426.836 331.676C429.509 307.337 428.278 302.629 423.474 291.674C423.474 291.674 382.517 287.527 381.276 304.548C379.717 325.758 379.527 363.333 380.099 370.82C380.672 378.307 380.651 376.918 382.464 392.03C383.906 404.014 386.876 430.855 386.876 430.855C388.525 431.694 390.355 432.113 392.205 432.076C394.055 432.039 395.867 431.547 397.481 430.643C397.481 430.643 400.822 396.558 400.472 387.926C400.048 377.374 399.411 374.691 399.411 374.691C399.411 374.691 404.205 343.522 404.947 338.018C404.947 338.018 405.615 347.86 406.177 355.347C406.739 362.834 406.686 365.888 408.298 381.372C409.539 393.515 412.54 414.248 412.54 414.248C413.981 414.833 415.537 415.079 417.087 414.965C418.638 414.85 420.141 414.38 421.481 413.59C421.481 413.59 426.963 384.458 426.709 375.91Z" fill="#6A8E4E"/>
<path d="M393.144 231.373L395.063 247.195L408.977 245.944L407.386 228.371L393.144 231.373Z" fill="#FFA8A7"/>
<path d="M422.552 244.534C421.024 240.376 417.514 236.049 412.169 237.004C410.769 237.269 409.55 237.471 408.235 237.736C408.118 241.373 401.246 243.261 394.395 241.055C392.338 241.649 390.45 242.243 388.742 242.858C383.843 244.608 381.881 252.742 381.764 266.348C381.648 279.955 380.216 313.902 380.216 313.902L385.943 315.705L388.615 305.768L389.676 317.667C396.181 319.183 402.953 319.151 409.444 317.571C424.164 314.39 428.734 306.415 428.734 306.415C426.308 296.812 422.359 287.661 417.037 279.308C424.418 259.72 424.821 250.674 422.552 244.534Z" fill="#37474F"/>
<path d="M382.804 211.265C381.97 209.375 381.63 207.305 381.815 205.248C382.001 203.191 382.706 201.214 383.864 199.504C388.53 192.176 397.534 190.925 408.256 193.777C411.98 194.921 415.26 197.185 417.65 200.262C420.039 203.338 421.421 207.077 421.608 210.968C422.117 218.795 400.291 224.564 400.79 229.92L382.804 211.265Z" fill="#263238"/>
<path d="M382.337 214.245C382.337 214.245 379.368 218.986 379.792 219.474C380.526 219.928 381.333 220.251 382.178 220.428L382.337 214.245Z" fill="#F28F8F"/>
<path d="M391.362 199.197C388.403 200.83 383.302 203.842 382.263 214.924C381.202 226.303 383.832 230.185 385.444 231.627C386.505 232.603 391.913 232.826 394.692 231.871C398.181 230.683 405.7 226.717 409.115 220.767C413.124 213.757 413.749 204.552 408.797 201.084C401.819 196.206 393.833 197.818 391.362 199.197Z" fill="#FFA8A7"/>
<path d="M391.351 200.543C389.623 204.708 388.55 209.116 388.17 213.609C386.806 213.623 385.451 213.404 384.161 212.962C384.161 212.962 384.108 208.19 385.391 205.475C384.16 207.662 383.367 210.068 383.058 212.559C381.685 212.447 380.371 211.955 379.261 211.138C378.201 206.037 381.382 195.517 390.45 193.841L391.351 200.543Z" fill="#263238"/>
<path d="M390.492 199.695C390.492 199.695 388.159 210.12 391.468 216.578C391.468 216.578 393.186 212.485 396.696 213.556C400.207 214.627 400.026 219.293 397.343 221.754C396.657 222.453 395.788 222.946 394.835 223.175C393.883 223.404 392.885 223.359 391.956 223.048C393.138 225.992 394.906 228.666 397.152 230.906C397.152 230.906 407.524 235.53 416.507 225.391C424.662 216.197 423.146 200.151 410.663 196.376C398.181 192.6 390.492 199.695 390.492 199.695Z" fill="#263238"/>
<path d="M425.023 223.185C427.483 225.794 427.016 230.227 423.962 233.091C420.908 235.954 416.475 236.166 414.015 233.568C411.554 230.97 412.021 226.515 415.075 223.652C418.129 220.789 422.552 220.577 425.023 223.185Z" fill="#263238"/>
<path d="M420.759 218.625C420.143 218.825 419.63 219.26 419.334 219.837C419.038 220.413 418.982 221.083 419.179 221.701L423.835 220.205C423.636 219.589 423.2 219.076 422.624 218.78C422.047 218.484 421.377 218.428 420.759 218.625Z" fill="#263238"/>
<path d="M353.533 267.918C351.508 265.617 351.179 260.494 348.485 257.016C345.791 253.537 346.279 249.974 344.593 251.544C342.907 253.113 344.169 258.872 344.169 258.872C344.169 258.872 341.04 264.683 340.765 267.653C340.489 270.622 348.379 278.099 348.379 278.099L353.533 267.918Z" fill="#FFA8A7"/>
<path d="M344.593 258.469C344.593 258.469 341.412 262.923 327.052 257.101C323.086 255.499 325.758 264.026 330.626 267.557C335.123 270.824 340.754 271.799 345.261 274.886C345.272 274.451 344.593 258.469 344.593 258.469Z" fill="#FFA8A7"/>
<path d="M389.962 242.434C385.868 243.855 382.294 245.509 378.476 252.678C373.566 261.905 364.69 279.955 364.69 279.955L353.533 267.918C353.533 267.918 351.911 265.638 348.899 270.612C345.887 275.585 347.223 276.975 347.223 276.975C347.223 276.975 360.161 294.293 362.526 296.499C364.891 298.705 368.805 296.987 371.35 293.529C373.895 290.072 387.056 266.221 387.056 266.221C387.056 266.221 395.742 251.151 389.962 242.434Z" fill="#FFA8A7"/>
<path opacity="0.2" d="M405 338.06L405.774 329.788C410.216 329.124 414.462 327.511 418.225 325.059C418.225 325.059 415.563 329.301 408.266 331.263L406.612 339.322L406.188 355.389L405 338.06Z" fill="black"/>
<path d="M381.584 275.745C381.584 275.745 386.727 266.741 387.056 266.2L381.17 289.033L381.584 275.745Z" fill="#263238"/>
<path d="M320.551 221.732C322.057 223.313 325.631 224.532 348.772 226.218C352.14 226.547 355.539 226.1 358.709 224.914C361.831 223.683 364.513 221.544 366.408 218.774C366.854 218.164 367.185 217.477 367.384 216.748C367.564 216.028 367.454 215.266 367.076 214.627C366.621 214.025 365.967 213.604 365.231 213.439C363.773 213.108 362.247 213.273 360.893 213.906C358.772 214.733 357.118 215.019 357.277 214.585C357.436 214.15 358.73 213.757 360.055 212.262C361.381 210.767 361.72 208.667 360.861 208.02C360.002 207.373 360.151 207.511 358.624 208.784C357.097 210.056 355.336 210.703 353.321 212.654C352.047 214.105 350.438 215.223 348.634 215.91C346.311 216.833 344.116 216.557 337.668 215.528C332.1 214.638 329.958 214.319 327.286 212.835C324.412 208.465 317.476 190.002 314.464 184.943C311.282 179.588 304.813 179.429 304.813 179.429C304.871 186.023 305.973 192.566 308.08 198.815C310.307 205.072 319.056 220.174 320.551 221.732Z" fill="#B16668"/>
<path d="M303.063 178.824C305.728 178.381 308.464 178.864 310.816 180.192C314.326 182.398 316.617 186.481 318.833 191.593C321.548 197.807 324.815 206.122 324.815 206.122C321.66 209.19 317.535 211.065 313.149 211.424L302.703 194.064L303.063 178.824Z" fill="#455A64"/>
<path d="M278.364 377.968H287.378V362.537H278.364V377.968Z" fill="#B16668"/>
<path d="M303.307 366.419L312.322 366.726L312.767 350.405L303.307 350.087V366.419Z" fill="#B16668"/>
<path d="M274.525 247.312C274.525 255.924 276.052 305.99 276.052 305.99C275.84 308.461 273.454 312.863 273.273 321.792C272.998 334.73 277.982 370.247 277.982 370.247C279.538 371.012 281.243 371.427 282.976 371.461C284.709 371.496 286.429 371.151 288.015 370.449C288.015 370.449 292.108 322.291 293.72 309.49C295.131 298.312 297.517 267.95 297.517 267.95L301.759 304.431C300.714 309.131 300.335 313.954 300.635 318.759C301.059 324.687 302.756 361.36 302.756 361.36C304.327 362.249 306.074 362.781 307.874 362.919C309.674 363.056 311.482 362.796 313.17 362.155C313.17 362.155 319.533 309.872 319.629 304.431C319.745 298.238 317.274 234.989 317.274 234.989L274.525 247.312Z" fill="#37474F"/>
<path d="M280.453 183.989C278.47 184.87 276.91 186.491 276.105 188.507C275.182 190.999 274.736 193.644 274.79 196.301V213.959L274.525 247.312C287.463 254.131 303.912 254.587 317.72 244.502C317.72 244.502 316.946 201.583 316.946 194.562C316.946 194.244 316.946 193.926 316.946 193.597C316.436 183.565 306.563 176.629 296.796 179.185L288.63 181.306L280.432 184.01L280.453 183.989Z" fill="#F0F0F0"/>
<path d="M312.36 159.905C317.197 155.067 317.197 147.224 312.36 142.387C307.523 137.55 299.68 137.55 294.842 142.387C290.005 147.224 290.005 155.067 294.842 159.905C299.68 164.742 307.523 164.742 312.36 159.905Z" fill="#263238"/>
<path d="M282.182 159.947C282.182 159.947 284.186 169.375 284.992 170.934C285.529 171.889 286.414 172.6 287.463 172.917L287.325 166.289L282.182 159.947Z" fill="#263238"/>
<path d="M284.695 146.436C283.994 146.354 283.284 146.434 282.618 146.669C281.953 146.905 281.35 147.289 280.856 147.793C279.202 149.48 280.124 154.772 282.182 159.947L285.957 160.382L284.695 146.436Z" fill="#263238"/>
<path d="M287.092 160.382C286.339 160.838 285.257 159.385 284.324 158.398C283.391 157.412 280.336 156.087 278.809 159.3C277.282 162.513 280.156 166.883 282.553 167.636C286.7 168.94 287.325 166.289 287.325 166.289L287.622 181.677C292.776 188.284 307.061 187.722 301.112 180.828V176.279C302.956 176.575 304.826 176.671 306.69 176.565C309.734 176.098 311.653 173.691 312.576 170.393C314.061 165.09 314.623 160.848 313.372 150.413C311.982 139.002 298.715 138.874 291.546 143.392C284.377 147.91 287.092 160.382 287.092 160.382Z" fill="#B16668"/>
<path d="M287.092 161.665C286.71 161.665 285.268 159.258 284.324 158.399C283.009 157.211 284.695 146.436 284.695 146.436C284.353 145.503 284.29 144.491 284.514 143.522C284.738 142.554 285.24 141.672 285.957 140.985C287.75 139.012 289.701 137.803 294.866 137.496C298.407 137.479 301.947 137.646 305.471 137.994C310.572 138.334 312.449 137.082 315.387 136.255C317.624 135.629 317.879 143.679 312.205 146.404C312.205 146.404 310.36 147.592 305.513 148.186C301.033 148.516 296.531 148.431 292.066 147.931C290.666 147.74 290.369 149.098 289.606 152.82C288.927 156.097 288.375 161.591 287.092 161.665Z" fill="#263238"/>
<path d="M284.706 147.274L280.125 144.813C280.271 144.505 280.478 144.229 280.734 144.003C280.99 143.777 281.289 143.606 281.613 143.499C281.938 143.391 282.28 143.351 282.62 143.38C282.96 143.41 283.291 143.507 283.592 143.668C284.205 144.011 284.663 144.577 284.87 145.248C285.078 145.919 285.019 146.645 284.706 147.274Z" fill="#263238"/>
<path d="M301.101 176.279C301.101 176.279 294.304 174.911 291.928 173.649C290.529 172.92 289.383 171.785 288.64 170.393C288.998 171.785 289.633 173.091 290.507 174.232C292.246 176.448 301.112 178.092 301.112 178.092L301.101 176.279Z" fill="#9A4A4D"/>
<path d="M300.762 158.685C300.75 158.95 300.659 159.206 300.503 159.421C300.346 159.636 300.13 159.8 299.881 159.893C299.633 159.986 299.362 160.004 299.103 159.944C298.844 159.885 298.608 159.751 298.424 159.559C298.241 159.367 298.118 159.125 298.07 158.864C298.023 158.602 298.053 158.333 298.158 158.088C298.262 157.844 298.436 157.635 298.657 157.489C298.879 157.342 299.139 157.264 299.405 157.264C299.587 157.267 299.768 157.306 299.936 157.379C300.103 157.452 300.255 157.558 300.381 157.69C300.507 157.822 300.606 157.978 300.671 158.149C300.737 158.32 300.768 158.502 300.762 158.685Z" fill="#263238"/>
<path d="M299.32 153.541L296.404 155.153C296.198 154.753 296.154 154.289 296.281 153.857C296.407 153.425 296.694 153.058 297.082 152.831C297.275 152.725 297.487 152.66 297.705 152.639C297.923 152.618 298.144 152.641 298.353 152.707C298.562 152.774 298.756 152.882 298.922 153.025C299.088 153.169 299.224 153.344 299.32 153.541Z" fill="#263238"/>
<path d="M300.507 168.092L303.615 169.269C303.55 169.481 303.443 169.678 303.3 169.848C303.157 170.017 302.981 170.156 302.782 170.255C302.584 170.355 302.367 170.412 302.146 170.425C301.924 170.438 301.702 170.405 301.494 170.329C301.07 170.159 300.729 169.83 300.545 169.411C300.361 168.993 300.347 168.52 300.507 168.092Z" fill="#9A4A4D"/>
<path d="M312.523 154.676L309.861 152.629C309.985 152.449 310.145 152.295 310.331 152.179C310.517 152.063 310.725 151.986 310.941 151.953C311.158 151.92 311.379 151.932 311.591 151.988C311.803 152.045 312.001 152.144 312.173 152.279C312.527 152.558 312.761 152.962 312.826 153.408C312.891 153.854 312.783 154.308 312.523 154.676Z" fill="#263238"/>
<path d="M311.707 158.292C311.723 158.482 311.701 158.672 311.64 158.852C311.579 159.032 311.481 159.197 311.353 159.337C311.225 159.477 311.069 159.588 310.895 159.665C310.721 159.741 310.534 159.781 310.344 159.781C310.154 159.781 309.966 159.741 309.793 159.665C309.619 159.588 309.463 159.477 309.335 159.337C309.207 159.197 309.109 159.032 309.048 158.852C308.987 158.672 308.964 158.482 308.981 158.292C308.975 158.11 309.006 157.929 309.072 157.758C309.137 157.588 309.236 157.433 309.363 157.301C309.489 157.17 309.641 157.065 309.808 156.993C309.976 156.921 310.156 156.883 310.339 156.882C310.521 156.885 310.701 156.923 310.869 156.996C311.036 157.068 311.188 157.173 311.315 157.304C311.442 157.435 311.542 157.59 311.609 157.759C311.676 157.929 311.709 158.11 311.707 158.292Z" fill="#263238"/>
<path d="M304.76 157.009L305.206 165.196L309.49 163.744L304.76 157.009Z" fill="#9A4A4D"/>
<path d="M287.378 373.513V372.23C288.237 372.601 290.242 380.248 293.826 383.514C296.668 386.102 300.55 389.103 301.536 391.998C302.522 394.893 296.128 396.665 293.476 396.24C290.39 395.689 284.992 393.515 283.698 391.5C282.405 389.485 281.726 386.515 280.633 385.041C279.541 383.567 277.028 381.913 276.391 380.205C276.073 379.272 276.455 377.215 276.911 375.475C277.367 373.736 277.781 372.135 278.322 372.294V373.27C279.603 374.283 281.195 374.823 282.829 374.797C284.186 374.754 287.389 374.521 287.378 373.513Z" fill="#263238"/>
<path d="M312.417 363.948C312.884 363.948 313.266 364.626 314.294 365.74C315.836 367.3 317.628 368.591 319.597 369.558C322.969 371.244 329.534 373.8 332.503 375.189C334.359 376.027 334.274 378.265 332.355 379.537C330.435 380.81 325.812 381.732 320.244 380.492C317.221 379.813 313.276 377.013 310.784 377.162C308.292 377.31 303.615 377.278 301.77 376.006C299.924 374.733 300.709 372.029 301.186 369.696C301.759 367.161 302.47 363.195 303.307 363.333V364.213C304.368 365.846 309.989 366.514 312.364 365.273L312.417 363.948Z" fill="#263238"/>
<path d="M297.517 267.95C302.172 266.497 306.452 264.039 310.052 260.749C310.052 260.749 307.634 265.288 300.423 269.509L301.388 301.324L297.517 267.95Z" fill="#263238"/>
<path d="M259.847 228.796C265.627 194.965 271.513 184.678 281.238 184.328C284.229 187.563 283.953 197.807 279.796 204.213C279.796 204.213 270.887 225.709 269.668 233.26C268.607 239.889 267.43 248.214 267.801 253.856C267.884 254.85 268.325 255.781 269.042 256.475C270.962 258.363 271.047 259.943 272.33 262.064C273.337 263.729 274.377 264.312 274.111 264.715C273.752 265.14 273.246 265.414 272.694 265.482C272.142 265.551 271.584 265.41 271.131 265.086C270.249 264.513 269.452 263.817 268.766 263.018C269.189 265.095 269.903 267.102 270.887 268.979C273.157 273.475 272.786 275.851 266.476 274.525C262.531 273.687 259.922 270.559 258.872 261.226C258.423 257.791 258.217 254.329 258.257 250.865C258.617 241.935 258.935 234.119 259.847 228.796Z" fill="#B16668"/>
<path d="M283.603 182.949C280.655 183.49 273.093 183.755 269.212 191.571C266.666 196.715 264.1 204.775 261.353 214.426C261.353 214.426 267.027 220.301 275.395 219.463L280.082 205.952C284.526 200.204 285.66 187.276 283.603 182.949Z" fill="#455A64"/>
<path d="M229.92 180.68C221.679 147.496 212.262 139.797 221.064 135.322C230.111 134.442 234.777 139.787 236.346 149.31C237.121 153.976 238.796 173.108 240.896 180.606C242.752 187.192 245.234 195.4 247.991 200.437C248.487 201.328 249.296 202.004 250.26 202.336C252.837 203.258 253.601 204.69 255.69 206.101C257.334 207.161 258.543 207.299 258.469 207.776C258.323 208.324 257.975 208.796 257.495 209.098C257.014 209.399 256.438 209.506 255.881 209.399C254.82 209.244 253.785 208.944 252.806 208.508C254.074 210.245 255.58 211.794 257.281 213.111C261.311 216.292 261.979 218.668 255.584 220.131C251.575 221.043 247.832 219.272 242.858 211.096C240.969 208.112 239.296 204.997 237.852 201.774C234.395 193.406 231.245 186.067 229.92 180.68Z" fill="#FFA8A7"/>
<path d="M201.487 328.675V327.392C201.997 328.898 204.351 335.398 207.925 338.654C210.767 341.253 214.638 344.243 215.624 347.138C216.61 350.034 210.237 351.147 207.575 350.681C204.499 350.14 200.512 348.39 198.338 345.717C196.811 343.84 195.835 341.624 194.743 340.15C193.65 338.675 191.147 337.021 190.501 335.314C190.182 334.38 190.564 332.323 191.02 330.594C191.476 328.866 191.89 327.243 192.431 327.413V328.388C193.716 329.394 195.306 329.933 196.938 329.916C198.306 329.937 201.498 329.682 201.487 328.675Z" fill="#263238"/>
<path d="M210.491 340.934C209.611 340.15 208.731 339.386 207.925 338.644C205.433 336.374 203.524 332.514 202.431 329.873C201.808 328.374 201.487 326.767 201.487 325.143V320.01H192.484V328.357V328.579C192.918 330.446 197.054 335.42 199.398 338.665C200.968 340.839 203.958 343.607 207.532 344.084C210.968 344.572 212.697 343.501 210.491 340.934Z" fill="#FFA8A7"/>
<path d="M236.611 319.798V318.547C237.11 320.053 239.475 326.554 243.038 329.81C245.88 332.408 249.762 335.399 250.737 338.294C251.713 341.189 245.35 342.303 242.699 341.836C239.613 341.295 235.625 339.545 233.451 336.873C231.924 334.996 230.959 332.779 229.867 331.305C228.774 329.831 226.261 328.176 225.677 326.469C225.349 325.536 225.731 323.478 226.187 321.75C226.643 320.021 227.056 318.409 227.608 318.568V319.544C228.889 320.551 230.475 321.089 232.104 321.071C233.419 321.06 236.622 320.806 236.611 319.798Z" fill="#263238"/>
<path d="M245.615 332.058C244.735 331.273 243.844 330.51 243.038 329.778C240.546 327.498 238.648 323.637 237.556 320.997C236.931 319.498 236.61 317.89 236.612 316.267V311.123H227.608V319.47V319.692C228.043 321.559 232.168 326.533 234.522 329.778C236.092 331.952 239.083 334.72 242.657 335.197C246.082 335.695 247.811 334.624 245.615 332.058Z" fill="#FFA8A7"/>
<path d="M194.276 188.75C187.298 203.99 194.53 257.684 194.53 257.684C194.318 260.155 191.487 265.033 190.437 275.914C189.185 288.778 192.388 321.092 192.388 321.092C193.761 321.889 195.307 322.338 196.893 322.401C198.479 322.463 200.056 322.138 201.487 321.453C201.487 321.453 210.067 272.796 211.679 260.006C213.089 248.839 215.794 224.288 215.794 224.288L223.472 259.943C222.35 263.54 221.537 267.226 221.043 270.962C220.312 278.481 227.608 313.52 227.608 313.52C227.608 313.52 230.715 314.655 236.612 313.785C236.612 313.785 239.189 267.303 239.867 258.235C241.002 243.017 236.962 195.517 234.172 186.502L194.276 188.75Z" fill="#6A8E4E"/>
<path opacity="0.1" d="M215.794 224.299L218.063 210.141C218.063 210.141 227.608 208.158 231.998 204.064C231.998 204.064 227.438 209.749 220.661 211.605L218.116 222.507L222.56 255.51L215.794 224.299Z" fill="black"/>
<path d="M206.588 135.778C197.638 136.393 197.044 140.72 194.774 145.45C193.131 149.089 192.979 153.227 194.35 156.977L200.586 175.006C198.044 179.388 195.931 184.005 194.276 188.793C209.929 197.521 229.464 192.929 234.172 186.555C234.374 185.208 233.165 174.635 232.412 167.731C235.169 160.816 235.901 156.437 234.734 151.823C232.613 143.339 224.203 135.078 220.492 135.375L206.588 135.778Z" fill="#F5F5F5"/>
<path d="M217.225 127.559H210.629C208.443 127.569 206.276 127.147 204.253 126.32C202.23 125.492 200.39 124.273 198.838 122.734C197.285 121.195 196.052 119.364 195.207 117.348C194.363 115.332 193.924 113.169 193.915 110.983C193.893 105.694 195.971 100.613 199.694 96.8562C203.417 93.0995 208.479 90.975 213.768 90.9498C216.388 90.9386 218.984 91.4435 221.408 92.4357C223.833 93.4279 226.038 94.8879 227.899 96.7324C229.759 98.5769 231.238 100.77 232.25 103.186C233.263 105.602 233.79 108.194 233.801 110.813C233.815 113.002 233.397 115.172 232.571 117.199C231.745 119.226 230.527 121.07 228.988 122.625C227.448 124.181 225.616 125.417 223.598 126.264C221.58 127.11 219.414 127.55 217.225 127.559Z" fill="#263238"/>
<path d="M208.603 86.2942C211.456 90.5362 208.434 93.3572 204.234 96.21C200.035 99.0628 196.27 100.802 193.417 96.613C190.564 92.4239 192.134 87.7365 196.333 84.9473C200.533 82.1581 205.761 82.1051 208.603 86.2942Z" fill="#263238"/>
<path d="M198.338 99.2748L194.096 102.393C193.879 102.125 193.718 101.817 193.623 101.486C193.528 101.155 193.501 100.808 193.544 100.466C193.587 100.124 193.698 99.7949 193.871 99.4972C194.044 99.1995 194.276 98.9399 194.552 98.734C195.128 98.3118 195.847 98.132 196.555 98.2331C197.262 98.3342 197.902 98.7081 198.338 99.2748Z" fill="#263238"/>
<path d="M226.102 99.8687C228.223 101.099 230.842 106.391 230.63 117.505C230.45 126.922 227.449 129.256 225.879 129.934C224.31 130.613 221.393 130.221 218.519 129.754L218.689 135.47C218.689 135.47 223.525 139.437 223.291 142.024C223.058 144.612 216.578 145.81 212.845 143.297C210.413 141.605 208.16 139.668 206.122 137.517C206.025 137.409 205.972 137.269 205.973 137.125V122.871C205.973 122.871 204.287 124.526 201.413 122.023C199.037 119.965 198.232 116.476 200.056 114.599C200.531 114.151 201.107 113.822 201.735 113.641C202.363 113.459 203.026 113.43 203.667 113.555C204.309 113.681 204.912 113.957 205.425 114.362C205.939 114.767 206.348 115.288 206.62 115.882C206.62 115.882 211.212 116.031 217.3 112.648C219.669 111.36 221.7 109.532 223.23 107.312C224.759 105.091 225.743 102.541 226.102 99.8687Z" fill="#FFA8A7"/>
<path d="M220.11 115.183C220.114 115.416 220.049 115.645 219.924 115.841C219.798 116.037 219.618 116.193 219.405 116.287C219.192 116.382 218.956 116.412 218.726 116.374C218.496 116.335 218.283 116.23 218.112 116.071C217.942 115.912 217.822 115.706 217.768 115.48C217.713 115.253 217.726 115.016 217.806 114.797C217.885 114.578 218.028 114.387 218.215 114.248C218.402 114.109 218.626 114.029 218.859 114.016C219.179 114.007 219.489 114.125 219.723 114.343C219.957 114.561 220.096 114.863 220.11 115.183Z" fill="#263238"/>
<path d="M220.46 123.158L223.217 124.027C223.167 124.212 223.081 124.384 222.963 124.535C222.845 124.685 222.699 124.811 222.531 124.904C222.364 124.997 222.18 125.055 221.99 125.076C221.8 125.097 221.608 125.079 221.425 125.024C221.056 124.896 220.75 124.631 220.571 124.283C220.391 123.936 220.351 123.533 220.46 123.158Z" fill="#F28F8F"/>
<path d="M229.803 111.503L227.396 109.859C227.495 109.696 227.626 109.554 227.782 109.444C227.937 109.333 228.114 109.256 228.301 109.216C228.488 109.176 228.68 109.175 228.868 109.213C229.055 109.25 229.232 109.326 229.389 109.435C229.709 109.662 229.93 110.002 230.006 110.386C230.083 110.771 230.01 111.17 229.803 111.503Z" fill="#263238"/>
<path d="M229.262 114.292C229.264 114.524 229.197 114.752 229.071 114.947C228.944 115.142 228.763 115.296 228.55 115.389C228.336 115.482 228.101 115.511 227.871 115.471C227.642 115.431 227.43 115.325 227.26 115.166C227.091 115.006 226.972 114.801 226.918 114.575C226.865 114.348 226.879 114.111 226.959 113.893C227.039 113.674 227.181 113.484 227.368 113.346C227.555 113.207 227.778 113.127 228.011 113.115C228.332 113.106 228.644 113.225 228.879 113.445C229.113 113.666 229.251 113.97 229.262 114.292Z" fill="#263238"/>
<path d="M223.928 113.04L223.896 120.761L227.639 119.584L223.928 113.04Z" fill="#F28F8F"/>
<path d="M218.519 129.775C215.486 129.383 209.25 127.654 208.274 125.162C208.659 126.424 209.426 127.536 210.47 128.344C212.336 129.924 218.572 131.716 218.572 131.716L218.519 129.775Z" fill="#F28F8F"/>
<path d="M210.587 190.437C209.362 190.155 208.205 189.631 207.185 188.896C206.165 188.161 205.302 187.23 204.646 186.158C203.99 185.085 203.555 183.892 203.366 182.65C203.177 181.407 203.238 180.139 203.545 178.92C203.589 178.751 203.642 178.584 203.704 178.421C203.917 177.76 204.347 177.191 204.925 176.806C205.503 176.421 206.194 176.243 206.885 176.3C205.938 175.573 205.145 174.666 204.551 173.63C203.958 172.594 203.576 171.45 203.428 170.266L201.074 159.162C200.847 157.321 201.01 155.453 201.551 153.679L195.262 146.404L194.106 147.21C193.151 150.403 193.24 153.818 194.361 156.956L200.597 174.985C198.017 179.347 195.902 183.968 194.287 188.772C199.378 191.509 204.998 193.123 210.766 193.504C216.535 193.884 222.317 193.023 227.725 190.978C222.029 191.887 216.213 191.703 210.587 190.437Z" fill="#E0E0E0"/>
<path d="M207.182 217.056L184.423 204.011C184.423 204.011 173.352 219.219 180.892 223.514C188.432 227.809 195.909 232.189 203.417 236.527C211.923 233.239 207.182 217.056 207.182 217.056Z" fill="#37474F"/>
<path d="M203.417 219.219L185.611 208.922V209.908L203.417 220.311V219.219Z" fill="#6A8E4E"/>
<path d="M207.182 217.056C205.719 221.828 201.317 235.35 203.428 236.569C205.538 237.789 212.06 233.589 211.912 231.054C211.541 223.917 207.182 217.056 207.182 217.056Z" fill="#455A64"/>
<path d="M200.893 135.735C201.824 135.643 202.761 135.849 203.567 136.324C204.374 136.798 205.008 137.517 205.379 138.376C209.017 145.291 206.514 216.684 206.514 216.684L204.054 215.274C204.054 215.274 204.913 192.261 204.828 171.305C204.764 155.917 204.191 141.388 203.534 139.808C203.22 138.898 202.606 138.122 201.792 137.608C200.979 137.093 200.015 136.87 199.059 136.976C199.255 136.648 199.521 136.367 199.838 136.152C200.155 135.938 200.515 135.796 200.893 135.735Z" fill="#263238"/>
<path d="M178.262 180.68C185.219 152.237 190.617 140.03 198.232 137.199C198.802 136.978 199.414 136.887 200.024 136.933C200.634 136.98 201.226 137.162 201.756 137.468C202.286 137.773 202.741 138.193 203.087 138.697C203.433 139.201 203.662 139.776 203.757 140.38C204.414 146.12 202.996 151.906 199.759 156.691C199.759 156.691 189.61 178.113 187.987 185.728C186.566 192.388 184.965 200.766 185.05 206.514C185.071 207.55 185.471 208.542 186.174 209.303C188.04 211.318 188.04 212.941 189.249 215.168C190.182 216.907 191.211 217.565 190.925 217.946C190.539 218.364 190.01 218.62 189.444 218.664C188.877 218.707 188.315 218.534 187.87 218.18C187.005 217.55 186.231 216.804 185.569 215.963C185.883 218.093 186.498 220.167 187.393 222.125C189.514 226.823 188.973 229.22 182.632 227.544C178.655 226.484 176.162 223.185 175.569 213.63C175.273 210.103 175.237 206.558 175.462 203.025C176.343 194 176.947 186.036 178.262 180.68Z" fill="#FFA8A7"/>
<path d="M173.606 140.38C174.242 134.166 174.242 131.536 174.051 130.761C173.182 127.23 170.721 124.398 168.134 120.156C163.701 112.807 156.998 101.332 153.912 96.8992C151.473 93.4207 148.843 91.3845 144.824 91.5966C142.024 91.7557 144.198 102.838 146.945 110.824L161.739 131.239C162.226 131.906 162.449 132.729 162.364 133.551L160.922 148.101L165.641 154.411C165.641 154.411 172.789 148.302 173.606 140.38Z" fill="#FFA8A7"/>
<path d="M173.691 139.49C173.479 138.429 172.737 137.485 170.796 137.559C168.855 137.634 167.339 140.136 167.339 140.136L172.811 142.565C173.097 141.844 173.373 141.102 173.606 140.359C173.638 140.062 173.67 139.776 173.691 139.49Z" fill="#F28F8F"/>
<path d="M143.201 91.4906C143.201 91.4906 149.278 90.7271 152.65 94.3964C156.023 98.0658 157.667 101.131 160.933 106.55C164.867 113.083 166.575 116.434 166.575 116.434C166.575 116.434 160.424 124.653 151.357 123.582L143.201 91.4906Z" fill="#37474F"/>
<path d="M153.707 71.863C158.614 66.9553 158.614 58.9982 153.707 54.0905C148.799 49.1827 140.842 49.1827 135.934 54.0905C131.026 58.9982 131.026 66.9553 135.934 71.863C140.842 76.7708 148.799 76.7708 153.707 71.863Z" fill="#263238"/>
<path d="M114.737 290.73H123.592V275.575H114.737V290.73Z" fill="#FFA8A7"/>
<path d="M145.428 280.124L154.273 280.432L154.718 264.397L145.874 264.1L145.428 280.124Z" fill="#FFA8A7"/>
<path d="M115.32 155.472C115.32 163.956 114.26 215.147 114.26 215.147C114.047 217.575 111.778 222.061 112.266 231.404C112.934 244.131 114.037 277.07 114.037 277.07C114.037 277.07 118.183 281.185 124.038 277.07C124.038 277.07 132.055 231.468 133.646 218.869C135.024 207.893 137.379 178.082 137.379 178.082L142.278 219.442C142.278 219.442 140.836 227.693 140.518 233.515C140.2 239.337 145.322 268.883 145.322 268.883C146.755 269.78 148.398 270.287 150.087 270.352C151.777 270.417 153.454 270.038 154.952 269.254C154.952 269.254 158.769 224.193 159.681 218.933C160.593 213.673 156.744 155.45 156.744 155.45L115.32 155.472Z" fill="#EBEBEB"/>
<path d="M123.825 94.3328C121.941 94.6639 120.197 95.5457 118.814 96.8669C117.43 98.1881 116.469 99.8895 116.052 101.756C115.563 103.964 115.317 106.219 115.32 108.48V155.461C121.524 162.216 143.159 165.366 156.68 155.461C156.68 155.461 156.415 113.963 155.408 107.144C153.636 95.2979 147.984 91.077 142.278 91.5119L128.608 93.4738L123.825 94.3328Z" fill="#6A8E4E"/>
<path d="M123.104 71.903C123.104 71.903 125.14 81.4476 125.957 83.049C126.502 84.017 127.398 84.7384 128.46 85.0639L128.322 78.3297L123.104 71.903Z" fill="#263238"/>
<path d="M125.66 58.201C124.948 58.12 124.226 58.202 123.55 58.4408C122.874 58.6797 122.261 59.0691 121.757 59.5797C120.082 61.2871 121.026 66.6533 123.104 71.9029L126.943 72.3483L125.66 58.201Z" fill="#263238"/>
<path d="M128.089 72.3483C127.325 72.8149 126.233 71.2878 125.278 70.3439C124.324 69.4001 121.238 67.9896 119.689 71.2454C118.141 74.5012 121.057 78.9447 123.486 79.7295C127.728 81.0551 128.322 78.3508 128.322 78.3508L128.64 93.5056C129.569 95.5381 130.987 97.3089 132.767 98.6598C134.548 100.011 136.635 100.9 138.842 101.247C146.266 102.255 144.76 96.1145 142.31 93.1026V88.5C144.182 88.7966 146.081 88.8926 147.973 88.7863C151.059 88.3091 153 85.8699 153.944 82.5293C155.45 77.1524 156.065 72.8149 154.739 62.2522C153.339 50.682 139.892 50.5865 132.606 55.1362C125.321 59.6858 128.089 72.3483 128.089 72.3483Z" fill="#FFA8A7"/>
<path d="M128.089 73.6422C127.707 73.6422 126.233 71.2136 125.278 70.344C123.953 69.135 125.66 58.2011 125.66 58.2011C125.313 57.2552 125.249 56.2285 125.477 55.247C125.705 54.2655 126.215 53.3719 126.943 52.6758C128.757 50.6714 131.8 50.4487 136.986 49.6427C139.701 49.2079 143.827 48.4549 146.531 47.9459C149.776 47.3414 152.459 46.7051 154.75 48.6989C155.649 49.4752 156.284 50.5114 156.569 51.6644C156.854 52.8175 156.774 54.0305 156.341 55.1362C156.108 55.6419 155.797 56.1073 155.418 56.5149C154.8 57.2501 153.993 57.8037 153.085 58.1162C153.085 58.1162 151.674 59.3782 146.722 59.9721C142.178 60.3137 137.612 60.2285 133.084 59.7176C131.662 59.5267 131.355 60.9054 130.591 64.6808C129.955 68.0002 129.393 73.621 128.089 73.6422Z" fill="#263238"/>
<path d="M125.671 59.0495L121.026 56.5997C121.172 56.2859 121.381 56.0053 121.64 55.775C121.898 55.5447 122.201 55.3696 122.53 55.2604C122.858 55.1512 123.206 55.1102 123.551 55.1399C123.896 55.1696 124.231 55.2694 124.536 55.4331C125.15 55.7785 125.609 56.3447 125.819 57.0166C126.03 57.6885 125.977 58.4154 125.671 59.0495Z" fill="#263238"/>
<path d="M142.3 88.4788C142.3 88.4788 135.406 87.0895 132.988 85.8063C131.572 85.0663 130.412 83.917 129.658 82.5081C130.025 83.919 130.671 85.2423 131.557 86.4001C133.317 88.6484 142.3 90.3134 142.3 90.3134V88.4788Z" fill="#F28F8F"/>
<path d="M140.645 70.6303C140.662 70.8222 140.639 71.0156 140.577 71.198C140.515 71.3805 140.416 71.548 140.285 71.6901C140.155 71.8321 139.997 71.9456 139.821 72.0232C139.644 72.1008 139.454 72.1408 139.261 72.1408C139.068 72.1408 138.878 72.1008 138.702 72.0232C138.525 71.9456 138.367 71.8321 138.237 71.6901C138.107 71.548 138.007 71.3805 137.946 71.198C137.884 71.0156 137.86 70.8222 137.877 70.6303C137.873 70.4456 137.905 70.2619 137.972 70.0897C138.04 69.9176 138.14 69.7604 138.268 69.6273C138.396 69.4942 138.55 69.3878 138.719 69.3142C138.889 69.2407 139.071 69.2014 139.256 69.1986C139.629 69.207 139.984 69.3618 140.244 69.6297C140.504 69.8976 140.648 70.257 140.645 70.6303Z" fill="#263238"/>
<path d="M139.171 65.4126L136.223 67.0458C136.009 66.6408 135.961 66.1683 136.09 65.7288C136.218 65.2892 136.513 64.9171 136.912 64.6914C137.106 64.5844 137.321 64.5181 137.541 64.4965C137.762 64.475 137.985 64.4987 138.197 64.5662C138.408 64.6337 138.603 64.7435 138.771 64.8891C138.938 65.0346 139.075 65.2127 139.171 65.4126Z" fill="#263238"/>
<path d="M141.674 80.1749L144.855 81.3521C144.79 81.5636 144.682 81.7596 144.538 81.9284C144.395 82.0972 144.219 82.2352 144.021 82.3343C143.823 82.4333 143.607 82.4913 143.386 82.5048C143.164 82.5183 142.943 82.4869 142.734 82.4126C142.298 82.2544 141.943 81.9307 141.744 81.5117C141.546 81.0928 141.52 80.6124 141.674 80.1749Z" fill="#F28F8F"/>
<path d="M152.968 66.5579L150.264 64.4369C150.391 64.2553 150.554 64.1015 150.743 63.9848C150.931 63.8681 151.142 63.7911 151.361 63.7583C151.58 63.7256 151.804 63.7378 152.018 63.7943C152.233 63.8508 152.433 63.9504 152.608 64.0869C152.978 64.371 153.222 64.788 153.289 65.2493C153.357 65.7106 153.242 66.1801 152.968 66.5579Z" fill="#263238"/>
<path d="M152.131 70.2379C152.118 70.5075 152.027 70.7675 151.868 70.9857C151.709 71.2039 151.49 71.3707 151.237 71.4654C150.984 71.56 150.709 71.5784 150.446 71.5182C150.183 71.4581 149.943 71.322 149.757 71.1269C149.57 70.9318 149.445 70.6862 149.397 70.4207C149.349 70.1551 149.379 69.8812 149.485 69.633C149.591 69.3848 149.768 69.1731 149.993 69.0242C150.218 68.8754 150.482 68.7959 150.752 68.7956C150.937 68.7997 151.12 68.8403 151.289 68.915C151.459 68.9898 151.612 69.0972 151.74 69.2311C151.868 69.3651 151.969 69.5229 152.036 69.6956C152.103 69.8684 152.135 70.0527 152.131 70.2379Z" fill="#263238"/>
<path d="M145.089 68.9229L145.545 77.2373L149.882 75.7526L145.089 68.9229Z" fill="#F28F8F"/>
<path d="M123.592 286.36V285.098C124.44 285.47 126.402 292.967 129.955 296.17C132.755 298.715 136.562 301.664 137.527 304.495C138.492 307.327 132.225 309.087 129.616 308.621C126.583 308.08 121.333 305.948 120.071 303.976C118.809 302.003 118.13 299.076 117.059 297.612C115.988 296.149 113.517 294.548 112.934 292.872C112.616 291.949 112.997 289.934 113.443 288.227C113.888 286.519 114.302 284.939 114.832 285.045V286.01C116.094 286.996 117.653 287.523 119.254 287.506C120.463 287.601 123.603 287.347 123.592 286.36Z" fill="#263238"/>
<path d="M154.368 277.707C154.824 277.707 155.195 278.364 156.214 279.467C157.726 281 159.486 282.265 161.421 283.211C164.729 284.876 171.177 287.453 174.147 288.736C175.971 289.553 175.876 291.758 173.998 292.978C172.121 294.198 167.572 295.099 162.11 293.911C159.13 293.243 155.259 290.496 152.809 290.645C150.36 290.793 145.778 290.761 143.965 289.51C142.151 288.259 142.904 285.607 143.392 283.317C143.954 280.824 144.749 276.954 145.577 277.166V277.961C146.637 279.562 152.056 280.22 154.389 279.022L154.368 277.707Z" fill="#263238"/>
<path d="M137.347 178.082C141.921 176.655 146.127 174.245 149.67 171.019C149.67 171.019 147.284 175.473 140.221 179.609L142.247 219.463L137.347 178.082Z" fill="#E0E0E0"/>
<path d="M101.618 168.781C101.902 172.797 102.433 176.793 103.209 180.744C105.86 190.967 109.254 194.032 113.814 194.329C121.036 194.817 121.079 192.112 117.844 187.457C116.433 185.426 115.359 183.18 114.663 180.807C115.723 181.692 116.888 182.444 118.131 183.045C118.685 183.333 119.327 183.402 119.93 183.239C120.533 183.076 121.053 182.693 121.386 182.165C121.62 181.677 120.326 181.189 118.979 179.503C117.219 177.382 116.317 175.632 113.878 173.84C113.066 173.041 112.55 171.99 112.414 170.86C112.054 169.407 111.799 146.224 113.114 141.43L119.318 119.159C124.377 115.692 129.754 98.5324 122.076 94.8843C114.864 95.7009 109.604 105.129 101.746 134.251C100.282 139.373 100.802 160.848 101.618 168.781Z" fill="#FFA8A7"/>
<path d="M123.592 94.4283C124.58 95.3057 125.37 96.384 125.907 97.5911C126.445 98.7982 126.719 100.106 126.71 101.428C126.912 106.285 124.589 113.284 123.263 117.664C121.938 122.044 119.021 129.966 119.021 129.966C119.021 129.966 107.154 128.609 104.45 121.641C104.45 121.641 110.018 103.612 115.363 97.8007C116.383 96.6438 117.656 95.7376 119.083 95.1527C120.511 94.5678 122.054 94.3199 123.592 94.4283Z" fill="#37474F"/>
<path d="M172.185 132.734L171.241 131.928C171.1 131.835 170.939 131.777 170.771 131.758C170.604 131.74 170.434 131.762 170.276 131.822L160.138 134.579C159.627 134.747 159.159 135.024 158.765 135.39C158.371 135.756 158.062 136.203 157.857 136.7L150.55 157.762C150.465 157.933 150.432 158.125 150.457 158.314C150.482 158.503 150.562 158.68 150.688 158.823L151.653 159.661V158.961H151.728L161.877 156.203C162.387 156.035 162.856 155.759 163.249 155.393C163.643 155.026 163.953 154.579 164.157 154.082C165.589 149.936 170.022 137.114 171.464 133.01C171.503 132.889 171.528 132.765 171.538 132.639L172.185 132.734Z" fill="#455A64"/>
<path d="M151.452 158.6L158.748 137.528C158.954 137.031 159.264 136.585 159.657 136.219C160.051 135.853 160.518 135.576 161.028 135.407L171.177 132.649C172.121 132.395 172.62 132.936 172.302 133.848C170.87 137.994 166.437 150.816 165.005 154.92C164.798 155.415 164.487 155.861 164.094 156.227C163.701 156.592 163.234 156.87 162.725 157.041L152.576 159.798C151.632 160.053 151.134 159.47 151.452 158.6Z" fill="#263238"/>
<path d="M169.332 142.332C168.622 144.453 166.066 145.906 161.908 146.903C157.751 147.899 155.397 152.343 156.076 153.7C156.754 155.058 163.499 156.309 166.225 155.928C168.95 155.546 171.665 151.622 172.482 150.413C173.298 149.204 174.263 140.73 173.394 139.574C173.045 139.219 172.621 138.946 172.153 138.775C171.685 138.604 171.185 138.541 170.69 138.588L169.332 142.332Z" fill="#FFA8A7"/>
<path d="M91.5124 111.746L65.4343 96.8356C65.4343 96.8356 52.7082 114.281 61.3832 119.212C70.0582 124.144 78.6059 129.15 87.2067 134.123C96.9634 130.295 91.5124 111.746 91.5124 111.746Z" fill="#6A8E4E"/>
<path opacity="0.2" d="M91.5124 111.746L65.4343 96.8356C65.4343 96.8356 52.7082 114.281 61.3832 119.212C70.0582 124.144 78.6059 129.15 87.2067 134.123C96.9634 130.295 91.5124 111.746 91.5124 111.746Z" fill="black"/>
<path d="M87.2065 114.228L69.9944 104.28V105.415L87.2065 115.469V114.228Z" fill="#263238"/>
<path d="M91.5123 111.747C89.8367 117.229 84.7886 132.724 87.2066 134.123C89.6246 135.523 97.1118 130.709 96.9634 127.76C96.5286 119.605 91.5123 111.747 91.5123 111.747Z" fill="#6A8E4E"/>
<path d="M53.0683 0H56.4302C61.4367 0 66.2382 1.98884 69.7783 5.52899C73.3185 9.06915 75.3073 13.8706 75.3073 18.8772V58.9859H34.1912V18.8772C34.1912 13.8706 36.18 9.06915 39.7202 5.52899C43.2603 1.98884 48.0618 0 53.0683 0Z" fill="#263238"/>
<path d="M91.7668 91.7133C94.2272 89.4226 93.2197 86.7501 89.8048 79.4219C86.39 72.0938 78.2664 55.1467 76.2302 51.5092C72.6775 45.1461 68.5097 44.8279 62.242 44.8491C59.718 44.8491 66.1129 52.0818 68.9975 59.0919C71.5958 65.4549 81.7237 86.188 81.7237 86.188L91.7668 91.7133Z" fill="#B16668"/>
<path d="M51.711 255.977C50.8096 255.171 49.8975 254.375 49.0703 253.622C46.5039 251.289 44.5525 247.323 43.4284 244.618C42.7904 243.075 42.4625 241.421 42.4633 239.751V234.448H33.2581V243.017V243.25H33.3111C33.7565 245.17 37.9986 250.282 40.4059 253.612C42.0179 255.849 45.0934 258.691 48.7628 259.179C52.1883 259.657 53.9699 258.554 51.711 255.977Z" fill="#B16668"/>
<path d="M78.4256 241.861C78.6829 241.71 78.9066 241.508 79.0831 241.267C79.8043 240.281 79.2316 239.74 78.712 238.955C78.0752 237.855 77.5426 236.697 77.1212 235.498C76.697 234.437 76.1349 232.571 76.1349 232.571C76.1349 232.571 76.1349 231.182 76.1349 230.63V225.328H66.8872V234.141C67.3644 236.187 69.2309 238.181 70.4611 239.814C71.405 241.076 73.8548 241.723 75.3289 242.041C75.9801 242.205 76.6559 242.248 77.3227 242.169C77.7075 242.143 78.0829 242.038 78.4256 241.861Z" fill="#B16668"/>
<path d="M35.0611 99.6566C27.892 115.31 35.3156 170.457 35.3156 170.457C35.1035 172.991 32.1977 177.997 31.0736 189.175C29.7903 202.389 33.0779 235.551 33.0779 235.551C34.4872 236.369 36.0751 236.831 37.7035 236.896C39.3318 236.96 40.9514 236.626 42.4211 235.922C42.4211 235.922 51.287 185.983 52.9308 172.832C54.3731 161.368 57.1728 136.17 57.1728 136.17L62.6875 172.822C61.5347 176.512 60.7009 180.294 60.1953 184.127C59.4424 191.858 66.9296 227.83 66.9296 227.83C66.9296 227.83 70.1111 228.997 76.1773 228.106C76.1773 228.106 78.818 180.383 79.5179 171.061C80.6951 155.429 78.9134 106.624 76.0394 97.3658L35.0611 99.6566Z" fill="#37474F"/>
<path d="M57.1516 136.138L59.4741 121.599C59.4741 121.599 69.3263 119.562 73.7911 115.363C73.7911 115.363 69.1036 121.185 62.1254 123.094L59.5166 134.293L61.8497 167.487L57.1516 136.138Z" fill="#263238"/>
<path d="M42.4844 241.617V240.281C43.3753 240.663 45.4433 248.542 49.1233 251.894C52.0503 254.555 56.0378 257.641 57.0453 260.611C58.0528 263.58 51.4988 265.404 48.7627 264.927C45.5811 264.365 40.0877 262.127 38.709 260.059C37.3303 257.991 36.6834 254.927 35.5275 253.41C34.3715 251.893 31.8263 250.228 31.2112 248.447C30.8824 247.482 31.2748 245.361 31.7414 243.579C32.208 241.797 32.6429 240.132 33.2049 240.291V241.352C34.5223 242.387 36.1537 242.941 37.8288 242.922C39.2074 242.922 42.495 242.646 42.4844 241.617Z" fill="#263238"/>
<path d="M76.1349 232.571C76.6122 232.571 77.1318 233.313 78.1923 234.459C79.7794 236.06 81.6215 237.386 83.6434 238.383C87.1113 240.122 93.8562 242.794 96.9104 244.173C98.8194 245.032 98.7345 247.355 96.762 248.638C94.7894 249.921 90.0277 250.897 84.3115 249.624C81.1936 248.924 77.1424 246.05 74.576 246.199C72.0095 246.347 67.216 246.326 65.3177 245.011C63.4194 243.696 64.1829 240.917 64.7132 238.531C65.2965 235.912 66.0282 231.839 66.8979 232.009V232.91C67.9584 234.597 73.7594 235.286 76.2092 234.045L76.1349 232.571Z" fill="#263238"/>
<path d="M47.7023 45.2734C38.5077 45.9097 37.8713 50.3427 35.57 55.1998C33.8202 58.8904 34.3929 63.3022 35.7291 67.1624L41.5407 85.5624C41.5407 85.5624 38.5607 92.8163 35.061 99.6566C51.1278 108.629 71.1927 103.899 76.0181 97.3659C76.2302 95.9766 74.9576 85.1276 74.2152 78.0433C77.0468 70.9379 77.7997 66.4413 76.6014 61.7432C74.3849 53.0364 65.7841 44.5523 61.9769 44.8598L47.7023 45.2734Z" fill="#6A8E4E"/>
<path d="M33.1946 8.48413L35.9731 12.9595C35.6885 13.1558 35.3671 13.2926 35.0283 13.3616C34.6895 13.4306 34.3402 13.4304 34.0015 13.3611C33.6627 13.2917 33.3415 13.1547 33.057 12.9581C32.7726 12.7615 32.5308 12.5095 32.3462 12.2171C31.982 11.6048 31.867 10.8759 32.0249 10.1812C32.1828 9.48649 32.6015 8.87895 33.1946 8.48413Z" fill="#263238"/>
<path d="M68.5627 8.31445C70.6837 9.59768 73.4199 15.0593 73.1547 26.5129C72.9214 36.2166 69.7823 38.5709 68.2551 39.3133C66.728 40.0557 63.6313 39.5784 60.6619 39.0906V44.934C60.6619 44.934 64.7554 49.6852 64.5009 52.3576C64.2464 55.0301 58.5939 55.6558 54.7548 53.047C52.2739 51.2618 50.1452 49.0325 48.4765 46.4718V32.3669C48.4765 32.3669 46.4722 35.0394 43.174 32.8654C39.8758 30.6913 39.7803 25.3145 41.6786 23.3844C43.577 21.4542 47.6599 22.0693 48.4235 24.7843C48.4235 24.7843 53.1428 24.9645 59.4317 21.5073C61.8846 20.1821 63.9901 18.2966 65.5768 16.0042C67.1635 13.7117 68.1865 11.077 68.5627 8.31445Z" fill="#B16668"/>
<path d="M61.2241 24.0737C61.2371 24.237 61.2173 24.4013 61.166 24.5568C61.1146 24.7124 61.0327 24.8562 60.925 24.9797C60.8173 25.1031 60.6861 25.2039 60.5389 25.2759C60.3918 25.348 60.2317 25.39 60.0682 25.3993C59.7476 25.3909 59.442 25.2618 59.2125 25.0378C58.983 24.8137 58.8465 24.5113 58.8305 24.191C58.8144 23.8706 58.9198 23.5561 59.1257 23.3102C59.3316 23.0643 59.6228 22.9052 59.9409 22.8647C60.1048 22.859 60.2681 22.8859 60.4215 22.9437C60.5749 23.0016 60.7153 23.0892 60.8346 23.2016C60.9539 23.3141 61.0498 23.449 61.1166 23.5987C61.1835 23.7484 61.22 23.9098 61.2241 24.0737Z" fill="#263238"/>
<path d="M62.6346 32.3033L65.4767 33.2047C65.4317 33.3993 65.3471 33.5825 65.2281 33.7429C65.1091 33.9034 64.9583 34.0375 64.7852 34.137C64.612 34.2366 64.4202 34.2993 64.2217 34.3214C64.0232 34.3434 63.8222 34.3243 63.6315 34.2652C63.2395 34.1366 62.9146 33.8579 62.7277 33.4902C62.5409 33.1225 62.5074 32.6957 62.6346 32.3033Z" fill="#9A4A4D"/>
<path d="M71.2352 20.3301L68.7642 18.6121C68.8682 18.4468 69.0047 18.3045 69.1654 18.1936C69.3261 18.0827 69.5076 18.0055 69.699 17.9669C69.8903 17.9282 70.0876 17.9288 70.2787 17.9686C70.4699 18.0084 70.6509 18.0866 70.811 18.1985C71.1431 18.4304 71.3726 18.7817 71.4517 19.179C71.5308 19.5762 71.4532 19.9887 71.2352 20.3301Z" fill="#263238"/>
<path d="M70.6624 23.1934C70.6753 23.3568 70.6556 23.521 70.6042 23.6766C70.5528 23.8322 70.4709 23.9759 70.3632 24.0994C70.2556 24.2229 70.1243 24.3236 69.9772 24.3957C69.83 24.4678 69.67 24.5097 69.5064 24.5191C69.1858 24.5107 68.8802 24.3815 68.6507 24.1575C68.4212 23.9335 68.2848 23.631 68.2687 23.3107C68.2526 22.9904 68.3581 22.6758 68.564 22.4299C68.7698 22.184 69.061 22.0249 69.3791 21.9844C69.543 21.9788 69.7063 22.0056 69.8597 22.0635C70.0131 22.1213 70.1535 22.209 70.2728 22.3214C70.3921 22.4338 70.488 22.5688 70.5549 22.7184C70.6217 22.8681 70.6583 23.0295 70.6624 23.1934Z" fill="#263238"/>
<path d="M64.7024 22.4935L64.8933 29.8429L68.7642 28.6445L64.7024 22.4935Z" fill="#9A4A4D"/>
<path d="M60.6089 39.0906C57.491 38.677 51.0643 36.8317 50.0674 34.2971C50.4786 35.5773 51.2749 36.6995 52.3475 37.5104C54.267 39.1542 60.6407 41.0101 60.6407 41.0101L60.6089 39.0906Z" fill="#9A4A4D"/>
<path opacity="0.1" d="M51.8067 101.396C47.4374 100.335 42.9938 95.5736 44.9982 90.9074C45.5657 89.5927 46.5494 88.501 47.798 87.8C48.2547 87.538 48.7823 87.4267 49.3059 87.4819C49.8295 87.5372 50.3224 87.7561 50.7144 88.1076C48.5934 86.7289 44.9982 80.0159 44.5104 77.5661L42.0288 69.3259C41.796 67.4353 41.9622 65.5169 42.5166 63.6945L36.0581 56.2709L34.8703 57.0981C33.8098 60.2797 34.6052 63.9915 35.7293 67.2261L41.5409 85.626C41.5409 85.626 38.5609 92.8163 35.0612 99.6566C40.2883 102.467 46.0569 104.124 51.9785 104.518C57.9001 104.911 63.8372 104.031 69.3901 101.937C63.5473 102.867 57.5812 102.684 51.8067 101.396Z" fill="black"/>
<path d="M20.426 89.2741C27.3829 60.8417 32.3674 50.788 37.8714 47.4686C39.9215 46.2861 42.2497 45.6711 44.6163 45.6869C45.3677 46.6331 45.8217 47.7809 45.9207 48.9851C46.5808 54.7141 45.1743 60.4905 41.9544 65.2747C41.9544 65.2747 31.8053 86.6971 30.1827 94.3116C28.7616 100.972 27.1602 109.35 27.2451 115.098C27.2666 116.133 27.6665 117.126 28.3692 117.887C30.2357 119.902 30.2357 121.524 31.4447 123.751C32.378 125.491 33.4067 126.138 33.1203 126.53C32.7349 126.948 32.2046 127.204 31.6372 127.246C31.0699 127.287 30.5081 127.111 30.066 126.753C29.1982 126.13 28.4234 125.388 27.7647 124.547C28.079 126.677 28.6931 128.751 29.5888 130.708C31.7098 135.407 31.169 137.803 24.8271 136.128C20.8502 135.067 18.3579 131.769 17.7641 122.214C17.4685 118.686 17.433 115.141 17.658 111.609C18.5064 102.584 19.1109 94.6191 20.426 89.2741Z" fill="#B16668"/>
<path d="M59.9832 86.9941C61.8921 87.5455 63.748 87.3016 66.3463 88.2879C68.2981 89.1172 70.3652 89.6429 72.4761 89.8469C74.7668 90.0377 77.0151 87.6198 82.8797 84.2898C88.4474 81.1082 95.309 87.6622 91.7456 91.7134C90.4902 92.921 89.0188 93.8816 87.4081 94.5449C84.7462 95.6055 82.1055 96.1675 75.2864 98.2355C74.1385 98.6278 73.0247 99.1137 71.9564 99.6884C70.633 100.287 69.2686 100.79 67.8734 101.194C64.6888 102.241 61.2885 102.449 58 101.799C55.9647 101.466 54.0886 100.493 52.6444 99.0203C51.4248 97.6416 50.3219 95.0222 50.7355 93.1769C50.8439 92.6183 51.1394 92.1133 51.5733 91.7452C52.6338 90.9074 54.2776 91.4376 55.476 91.6285C56.8718 91.9171 58.2928 92.0663 59.7181 92.0739C62.0088 91.9785 63.6102 91.5967 63.292 91.2573C62.9738 90.918 61.6376 91.0771 59.8241 90.1968C58.0106 89.3166 56.8865 87.5774 57.4061 86.6441C57.9258 85.7108 58.0743 86.4426 59.9832 86.9941Z" fill="#B16668"/>
<path d="M81.1298 85.2337C81.1298 85.2337 84.2477 84.714 86.2733 88.2561C88.2989 91.7982 89.3594 110.527 89.3594 110.527L87.2383 109.286C87.2383 109.286 86.5172 94.3011 84.7143 90.0272C84.2495 88.9412 83.4513 88.0312 82.4352 87.4287C81.419 86.8263 80.2376 86.5627 79.0618 86.676C79.2829 86.3013 79.582 85.9786 79.9388 85.7297C80.2956 85.4809 80.7018 85.3117 81.1298 85.2337Z" fill="#263238"/>
<path d="M9.2689 135.46H0V280.008C0.0393645 280.414 0.185714 280.803 0.424155 281.135C0.662597 281.466 0.984618 281.729 1.35746 281.896C2.37225 282.413 3.49525 282.683 4.63445 282.683C5.77365 282.683 6.89665 282.413 7.91144 281.896C8.28428 281.729 8.60631 281.466 8.84475 281.135C9.08319 280.803 9.22954 280.414 9.2689 280.008V135.46Z" fill="#37474F"/>
<path d="M4.63445 138.132C7.19399 138.132 9.2689 136.936 9.2689 135.46C9.2689 133.984 7.19399 132.787 4.63445 132.787C2.07491 132.787 0 133.984 0 135.46C0 136.936 2.07491 138.132 4.63445 138.132Z" fill="#455A64"/>
<path d="M7.42358 153.329C40.3526 184.572 80.1855 206.896 125.819 221.69V212.495C80.2173 197.648 40.3526 175.377 7.42358 144.145V153.329Z" fill="#6A8E4E"/>
<path opacity="0.7" d="M7.42358 153.329C40.3526 184.572 80.1855 206.896 125.819 221.69V212.495C80.2173 197.648 40.3526 175.377 7.42358 144.145V153.329Z" fill="white"/>
<path d="M127.824 204.276H118.566V348.814C118.601 349.223 118.746 349.615 118.985 349.949C119.223 350.283 119.548 350.547 119.923 350.712C120.938 351.225 122.058 351.492 123.195 351.492C124.331 351.492 125.452 351.225 126.467 350.712C126.842 350.547 127.166 350.283 127.405 349.949C127.644 349.615 127.789 349.223 127.824 348.814V204.276Z" fill="#37474F"/>
<path d="M119.923 206.132C120.937 206.645 122.058 206.912 123.195 206.912C124.331 206.912 125.452 206.645 126.466 206.132C128.28 205.072 128.28 203.396 126.466 202.346C125.452 201.834 124.331 201.567 123.195 201.567C122.058 201.567 120.937 201.834 119.923 202.346C118.099 203.428 118.099 205.072 119.923 206.132Z" fill="#455A64"/>
<path d="M125.427 221.287C158.356 252.53 198.189 274.854 243.823 289.648V280.475C198.221 265.627 158.356 243.356 125.427 212.114V221.287Z" fill="#6A8E4E"/>
<path opacity="0.7" d="M125.427 221.287C158.356 252.53 198.189 274.854 243.823 289.648V280.475C198.221 265.627 158.356 243.356 125.427 212.114V221.287Z" fill="white"/>
<path d="M246.421 273.083H237.152V417.631C237.189 418.04 237.334 418.431 237.573 418.765C237.811 419.099 238.135 419.363 238.51 419.529C239.526 420.042 240.648 420.309 241.787 420.309C242.925 420.309 244.047 420.042 245.064 419.529C245.437 419.361 245.76 419.096 245.998 418.763C246.237 418.43 246.383 418.039 246.421 417.631V273.083Z" fill="#37474F"/>
<path d="M241.755 275.755C244.315 275.755 246.389 274.559 246.389 273.083C246.389 271.607 244.315 270.41 241.755 270.41C239.196 270.41 237.121 271.607 237.121 273.083C237.121 274.559 239.196 275.755 241.755 275.755Z" fill="#455A64"/>
</svg>
