<svg width="48" height="48" viewBox="0 0 48 48" fill="none" xmlns="http://www.w3.org/2000/svg">
<path fill-rule="evenodd" clip-rule="evenodd" d="M24.0001 42H14.0001V38H20.3826L14.3901 28.454C13.9781 27.8 13.5841 27.13 13.2321 26.444C10.6981 21.478 8.03008 14.176 14.0961 8.10604C16.7161 5.48404 20.2321 4.04004 24.0001 4.04004C27.7661 4.04004 31.2841 5.48404 33.9041 8.10404C40.0041 14.208 37.2761 21.576 34.6941 26.586C34.3901 27.178 34.0481 27.758 33.6941 28.324L27.6181 38H34.0001V42H24.0001ZM16.9241 10.932C18.7881 9.06604 21.3001 8.04004 24.0001 8.04004C26.7001 8.04004 29.2101 9.06604 31.0761 10.932C34.3981 14.256 34.4181 18.39 31.1361 24.754C30.8841 25.248 30.5961 25.73 30.3041 26.198L24.0001 36.24L17.7761 26.326C17.4281 25.772 17.0901 25.206 16.7941 24.624C13.5821 18.334 13.6221 14.238 16.9241 10.932ZM18.0001 18C18.0001 21.308 20.6921 24 24.0001 24C27.3081 24 30.0001 21.308 30.0001 18C30.0001 14.692 27.3081 12 24.0001 12C20.6921 12 18.0001 14.692 18.0001 18ZM22.0001 18C22.0001 16.898 22.8981 16 24.0001 16C25.1021 16 26.0001 16.898 26.0001 18C26.0001 19.102 25.1021 20 24.0001 20C22.8981 20 22.0001 19.102 22.0001 18Z" fill="#6A8E4E"/>
</svg>
